<?xml version="1.0" encoding="utf-8"?>
<!-- Generator: Adobe Illustrator 23.0.4, SVG Export Plug-In . SVG Version: 6.00 Build 0)  -->
<svg version="1.1" id="Layer_1" xmlns="http://www.w3.org/2000/svg" xmlns:xlink="http://www.w3.org/1999/xlink" x="0px" y="0px"
	 viewBox="0 0 32 32" style="enable-background:new 0 0 32 32;" xml:space="preserve">
<style type="text/css">
	.st0{fill:#008AD0;}
	.st1{fill:#333333;}
</style>
<g>
	<path class="st1" d="M29,23c-0.125,0-0.251-0.023-0.372-0.071c-1.829-0.732-3.596-1.908-5.251-3.494
		c-0.398-0.382-0.412-1.015-0.029-1.414c0.382-0.398,1.015-0.413,1.414-0.029c0.814,0.78,1.654,1.447,2.512,1.994
		c-0.304-1.042-0.638-2.357-0.888-3.81c-0.059-0.338,0.061-0.681,0.313-0.911C28.183,13.92,29,12.229,29,10.5
		C29,6.364,24.514,3,19,3C13.486,3,9,6.364,9,10.5c0,0.122,0.004,0.242,0.012,0.362c0.036,0.551-0.381,1.027-0.933,1.063
		c-0.557,0.016-1.027-0.382-1.063-0.933C7.005,10.83,7,10.665,7,10.5C7,5.262,12.383,1,19,1c6.617,0,12,4.262,12,9.5
		c0,2.13-0.901,4.19-2.549,5.856c0.564,2.957,1.469,5.25,1.478,5.273c0.148,0.372,0.061,0.796-0.223,1.078
		C29.515,22.898,29.26,23,29,23z"/>
</g>
<g>
	<path class="st1" d="M3,31c-0.26,0-0.516-0.102-0.707-0.292c-0.283-0.282-0.371-0.706-0.223-1.078
		c0.01-0.023,0.914-2.316,1.478-5.273C1.901,22.689,1,20.63,1,18.5C1,13.262,6.383,9,13,9c6.617,0,12,4.262,12,9.5S19.617,28,13,28
		c-1.478,0-2.922-0.214-4.305-0.636c-1.677,1.623-3.465,2.821-5.324,3.564C3.251,30.977,3.125,31,3,31z M13,11
		c-5.514,0-10,3.364-10,7.5c0,1.728,0.817,3.42,2.301,4.765c0.253,0.23,0.372,0.573,0.313,0.911
		c-0.25,1.452-0.583,2.769-0.888,3.811c1.024-0.653,2.021-1.477,2.983-2.462c0.272-0.279,0.683-0.375,1.05-0.244
		C10.107,25.758,11.534,26,13,26c5.514,0,10-3.364,10-7.5S18.514,11,13,11z"/>
</g>
<g>
	<path class="st0" d="M6,19.5c-0.552,0-1-0.447-1-1c0-2.656,3.215-5.5,8-5.5c0.552,0,1,0.447,1,1s-0.448,1-1,1
		c-3.663,0-6,2.073-6,3.5C7,19.053,6.552,19.5,6,19.5z"/>
</g>
</svg>
