<svg xmlns="http://www.w3.org/2000/svg" viewBox="0 0 64 64"><defs><style>.cls-1{fill:#272835;}</style></defs><title>24-Email</title><g id="_24-Email" data-name="24-Email"><path class="cls-1" d="M64,27a1,1,0,0,0-.35-.77L57,20.66V6a1,1,0,0,0-1-1H38.32L32.64.23a1,1,0,0,0-1.29,0L25.67,5H8A1,1,0,0,0,7,6V20.66L.36,26.23A1,1,0,0,0,0,27H0V63a1,1,0,0,0,1,1H63a1,1,0,0,0,1-1V27Zm-7-3.73,4.27,3.58L57,29.33Zm-25-21L35.21,5H28.79ZM9,7H55V30.49L32,43.84,9,30.49ZM7,23.27v6.05L2.73,26.85ZM2,28.74l20.15,11.7L2,60.59ZM3.41,62,23.94,41.48l7.56,4.39a1,1,0,0,0,1,0l7.56-4.39L60.59,62ZM62,60.59,41.85,40.44,62,28.74Z"/><path class="cls-1" d="M37,31a4,4,0,0,0-4-4,4,4,0,0,0-2,.57L28.43,25a3.88,3.88,0,0,0,0-4L31,18.43A4,4,0,0,0,33,19a4,4,0,1,0-4-4,4,4,0,0,0,.57,2L27,19.57A4,4,0,0,0,25,19a4,4,0,0,0,0,8,4,4,0,0,0,2-.57L29.57,29A4,4,0,0,0,29,31a4,4,0,0,0,8,0ZM33,13a2,2,0,1,1-2,2A2,2,0,0,1,33,13ZM25,25a2,2,0,1,1,2-2A2,2,0,0,1,25,25Zm6,6a2,2,0,1,1,2,2A2,2,0,0,1,31,31Z"/><rect class="cls-1" x="31" y="22" width="2" height="2"/><rect class="cls-1" x="35" y="22" width="2" height="2"/><rect class="cls-1" x="39" y="22" width="2" height="2"/><path class="cls-1" d="M11,11v5h2V11h3V9H13A2,2,0,0,0,11,11Z"/><rect class="cls-1" x="18" y="9" width="2" height="2"/></g></svg>