<svg width="360" height="195" viewBox="0 0 360 195" fill="none" xmlns="http://www.w3.org/2000/svg">
<g clip-path="url(#clip0_295_19433)">
<path d="M245.728 161.179H299.248" stroke="#212E36" stroke-width="0.5" stroke-linecap="round" stroke-linejoin="round"/>
<path d="M161.171 13.693L186.709 16.6256C188.786 16.87 190.253 18.7028 190.008 20.9023L188.298 35.6875C188.053 37.7648 186.22 39.2311 184.021 38.9867L158.605 36.0541C156.528 35.8097 155.061 33.9768 155.306 31.7774L157.016 16.9922C157.139 14.9149 159.094 13.4486 161.171 13.693Z" fill="white" stroke="#212E36" stroke-width="0.5" stroke-linecap="round" stroke-linejoin="round"/>
<path d="M161.049 16.1368L186.221 19.0694C187.076 19.1916 187.809 19.9248 187.687 20.9023L186.098 34.5878C185.976 35.4432 185.243 36.1763 184.265 36.0541L159.094 32.9993C158.239 32.8771 157.505 32.144 157.628 31.1664L159.216 17.4809C159.338 16.6256 160.194 16.0146 161.049 16.1368Z" fill="#F8AD4D"/>
<path d="M163.615 19.6804L182.921 21.8798" stroke="#212E36" stroke-width="0.5" stroke-linecap="round" stroke-linejoin="round"/>
<path d="M163.248 22.7352L182.555 24.9346" stroke="#212E36" stroke-width="0.5" stroke-linecap="round" stroke-linejoin="round"/>
<path d="M162.515 28.7226L172.779 29.9445" stroke="#212E36" stroke-width="0.5" stroke-linecap="round" stroke-linejoin="round"/>
<path d="M179.378 32.0218C180.862 32.0218 182.066 30.8182 182.066 29.3335C182.066 27.8489 180.862 26.6453 179.378 26.6453C177.893 26.6453 176.689 27.8489 176.689 29.3335C176.689 30.8182 177.893 32.0218 179.378 32.0218Z" fill="black" stroke="white" stroke-width="0.5" stroke-linecap="round" stroke-linejoin="round"/>
<path fill-rule="evenodd" clip-rule="evenodd" d="M204.305 175.842V192.338L194.407 192.826V195.026H211.025V191.36H206.26" fill="white"/>
<path d="M204.305 175.842V192.338L194.407 192.826V195.026H211.025V191.36H206.26" stroke="#212E36" stroke-width="0.5" stroke-linecap="round" stroke-linejoin="round"/>
<path d="M62.6843 194.659H187.198" stroke="#212E36" stroke-width="0.5" stroke-linecap="round" stroke-linejoin="round"/>
<path d="M101.053 181.218H91.766V194.537H101.053V181.218Z" fill="#3F89FA"/>
<path d="M129.157 181.218H119.87V194.537H129.157V181.218Z" fill="#3F89FA"/>
<path d="M129.279 130.02H61.0959C59.7518 130.02 58.6521 128.92 58.6521 127.576V115.479C58.6521 114.135 59.7518 113.035 61.0959 113.035H129.279V130.02Z" fill="#3F89FA"/>
<path fill-rule="evenodd" clip-rule="evenodd" d="M62.6843 126.354H70.2602L67.572 116.212H62.6843V126.354Z" fill="#212E36" stroke="#212E36" stroke-width="0.5" stroke-linecap="round" stroke-linejoin="round"/>
<path fill-rule="evenodd" clip-rule="evenodd" d="M74.9034 126.354H123.658V116.212H72.2152L74.9034 126.354Z" fill="#212E36" stroke="#212E36" stroke-width="0.5" stroke-linecap="round" stroke-linejoin="round"/>
<path d="M125.613 130.02H68.6716V147.371H125.613V130.02Z" fill="white" stroke="#212E36" stroke-width="0.5" stroke-linecap="round" stroke-linejoin="round"/>
<path d="M93.2323 130.02H88.2224V147.371H93.2323V130.02Z" fill="#212E36" stroke="#212E36" stroke-width="0.5" stroke-linecap="round" stroke-linejoin="round"/>
<path d="M77.9582 130.02H68.6716V147.371H77.9582V130.02Z" fill="#212E36" stroke="#212E36" stroke-width="0.5" stroke-linecap="round" stroke-linejoin="round"/>
<path d="M129.279 164.844H68.6716V181.218H129.279V164.844Z" fill="white" stroke="#212E36" stroke-width="0.5" stroke-linecap="round" stroke-linejoin="round"/>
<path d="M102.274 171.076H79.6689V176.941H102.274V171.076Z" fill="#212E36" stroke="#212E36" stroke-width="0.5" stroke-linecap="round" stroke-linejoin="round"/>
<path d="M125.613 170.587H106.673V176.941H125.613V170.587Z" fill="#212E36" stroke="#212E36" stroke-width="0.5" stroke-linecap="round" stroke-linejoin="round"/>
<path d="M74.6592 164.844H71.36V181.218H74.6592V164.844Z" fill="#212E36" stroke="#212E36" stroke-width="0.5" stroke-linecap="round" stroke-linejoin="round"/>
<path d="M91.7661 181.218H82.4795V194.537H91.7661V181.218Z" fill="#212E36" stroke="#212E36" stroke-width="0.5" stroke-linecap="round" stroke-linejoin="round"/>
<path d="M110.461 181.218H101.175V194.659H110.461V181.218Z" fill="white" stroke="#212E36" stroke-width="0.5" stroke-linecap="round" stroke-linejoin="round"/>
<path d="M119.748 181.218H110.462V194.537H119.748V181.218Z" fill="#212E36" stroke="#212E36" stroke-width="0.5" stroke-linecap="round" stroke-linejoin="round"/>
<path d="M114.86 137.596C114.371 137.107 114.005 136.74 113.516 136.252C113.516 136.618 113.394 136.862 113.394 136.985C113.027 137.229 112.783 137.351 112.539 137.473C112.661 137.718 112.783 137.962 113.027 138.084C113.76 138.451 114.371 137.962 114.86 137.596Z" fill="#212E36"/>
<path d="M112.905 131.975C112.661 132.219 112.538 132.464 112.294 132.83C112.172 132.586 111.928 132.341 111.805 132.097C111.683 132.097 111.561 132.097 111.561 132.097C111.561 132.464 111.439 133.075 111.683 133.319C112.05 133.808 112.783 133.808 113.272 133.441C113.149 133.075 113.027 132.586 112.905 131.975Z" fill="#212E36"/>
<path d="M118.404 132.586C118.159 132.83 118.037 133.075 117.793 133.441C117.671 133.197 117.426 132.952 117.304 132.708C117.182 132.708 117.182 132.708 117.06 132.708C117.06 133.075 116.938 133.685 117.182 133.93C117.548 134.419 118.282 134.419 118.77 134.052C118.648 133.563 118.526 133.197 118.404 132.586Z" fill="#212E36"/>
<path d="M110.095 138.573C110.339 138.573 110.583 138.695 110.706 138.573C110.95 138.451 111.194 138.329 111.194 138.084C111.317 137.718 111.439 137.351 111.317 136.985C111.317 136.74 111.194 136.496 111.072 136.252C110.95 136.374 110.828 136.618 110.706 136.74C110.461 137.229 110.095 137.596 109.85 138.084C109.973 138.329 110.095 138.451 110.095 138.573Z" fill="#212E36"/>
<path d="M113.394 143.583C113.638 143.827 113.761 144.072 114.005 144.194C114.249 144.316 114.738 144.316 114.982 144.194C115.349 143.95 115.716 143.705 116.082 143.339C116.327 143.094 116.327 142.728 116.449 142.483C116.204 142.483 115.838 142.605 115.593 142.605C114.982 142.728 114.249 142.972 113.638 143.094C113.516 143.216 113.394 143.339 113.394 143.583Z" fill="#212E36"/>
<path d="M117.182 146.76C117.426 146.76 117.671 146.882 117.793 146.76C118.037 146.638 118.282 146.516 118.282 146.271C118.404 145.905 118.404 145.538 118.404 145.172C118.404 144.927 118.282 144.683 118.159 144.438C118.037 144.561 117.915 144.805 117.793 144.927C117.548 145.416 117.182 145.782 116.938 146.271C117.06 146.516 117.06 146.638 117.182 146.76Z" fill="#212E36"/>
<path d="M119.259 143.705C119.504 143.705 119.748 143.827 119.87 143.705C120.114 143.583 120.359 143.461 120.359 143.216C120.481 142.85 120.481 142.483 120.481 142.117C120.481 141.872 120.359 141.628 120.237 141.384C120.114 141.506 119.992 141.75 119.87 141.872C119.626 142.361 119.259 142.728 119.015 143.216C119.137 143.339 119.259 143.461 119.259 143.705Z" fill="#212E36"/>
<path d="M123.658 146.393C122.681 145.538 121.947 145.538 121.214 146.393C122.07 147.004 122.803 146.516 123.658 146.393Z" fill="#212E36"/>
<path d="M110.461 134.663C110.095 134.419 109.973 134.174 109.728 133.93C109.606 133.93 109.362 134.052 109.362 134.052C109.362 134.296 109.484 134.541 109.606 134.785L109.728 134.907C109.85 135.152 109.973 135.396 110.095 135.641C110.217 135.396 110.339 135.03 110.461 134.663Z" fill="#212E36"/>
<path d="M108.262 142.117C107.895 142.606 107.773 143.216 107.162 142.605C107.04 142.483 106.918 142.606 106.796 142.728C106.673 142.728 106.673 143.094 106.673 143.094C107.04 143.216 107.529 143.461 108.017 143.583C108.14 143.583 108.262 143.339 108.384 143.216C108.384 142.85 108.384 142.483 108.262 142.117Z" fill="#212E36"/>
<path d="M115.593 144.927C115.227 145.416 115.105 146.027 114.494 145.416C114.371 145.294 114.249 145.416 114.127 145.538C114.005 145.538 114.005 145.905 114.005 145.905C114.494 146.027 114.86 146.271 115.349 146.393C115.471 146.393 115.593 146.149 115.716 146.027C115.716 145.66 115.716 145.294 115.593 144.927Z" fill="#212E36"/>
<path d="M118.159 137.107C117.915 136.985 117.793 136.862 117.548 136.74C117.548 136.862 117.426 136.985 117.548 137.107C117.915 137.84 118.526 137.473 119.137 137.473C119.259 137.473 119.259 136.985 119.381 136.74C119.137 136.618 118.893 136.496 118.648 136.618C118.404 136.618 118.282 136.985 118.159 137.107Z" fill="#212E36"/>
<path d="M121.825 139.184C121.214 139.306 120.603 139.306 120.115 139.429C120.848 140.65 121.092 140.65 121.825 139.184Z" fill="#212E36"/>
<path d="M117.06 145.294C117.182 144.683 118.281 144.316 117.426 143.339C117.182 143.95 116.937 144.561 116.693 145.172C116.815 145.172 116.937 145.172 117.06 145.294Z" fill="#212E36"/>
<path d="M122.07 145.416C121.581 144.927 121.336 144.683 120.848 144.316C120.725 144.561 120.359 144.805 119.992 145.416C120.848 145.294 121.336 145.416 122.07 145.416Z" fill="#212E36"/>
<path d="M118.648 135.396C119.137 135.518 119.504 135.763 119.626 135.641C119.87 135.518 119.992 135.152 120.115 134.907C119.87 134.785 119.626 134.541 119.504 134.663C119.137 134.785 119.015 135.03 118.648 135.396Z" fill="#212E36"/>
<path d="M115.471 133.319C115.227 133.808 115.105 134.052 114.983 134.419C114.983 134.541 115.105 134.785 115.105 134.907C115.349 134.785 115.594 134.785 115.716 134.663C115.838 134.419 115.96 134.052 116.082 133.685C115.96 133.685 115.716 133.563 115.471 133.319Z" fill="#212E36"/>
<path d="M114.86 138.695C115.349 138.818 115.593 138.94 115.838 138.94C115.96 138.94 116.082 138.329 116.082 138.329C115.838 138.207 115.593 138.084 115.227 137.962C115.227 137.962 115.105 138.329 114.86 138.695Z" fill="#212E36"/>
<path d="M111.194 141.506C111.561 142.239 111.805 142.605 112.05 143.216C112.783 142.361 112.539 142.117 111.194 141.506Z" fill="#212E36"/>
<path d="M117.304 138.94C117.671 139.673 117.915 140.039 118.159 140.65C118.892 139.795 118.648 139.551 117.304 138.94Z" fill="#212E36"/>
<path d="M114.494 141.261C114.86 141.384 115.105 141.75 115.227 141.628C115.349 141.628 115.471 141.261 115.593 141.017C115.349 140.895 115.105 140.773 114.86 140.65C114.86 140.65 114.738 141.017 114.494 141.261Z" fill="#212E36"/>
<path d="M121.947 143.094C122.314 143.216 122.558 143.583 122.681 143.461C122.803 143.461 122.925 143.094 123.047 142.85C122.803 142.728 122.558 142.606 122.314 142.483C122.314 142.483 122.192 142.85 121.947 143.094Z" fill="#212E36"/>
<path d="M115.716 131.486C116.327 131.242 116.937 130.997 117.548 130.631C116.815 130.386 116.082 130.631 115.716 131.486Z" fill="#212E36"/>
<path d="M114.372 131.73C114.86 131.853 115.105 131.975 115.227 131.853C115.349 131.73 115.471 131.486 115.471 131.242C115.227 131.119 114.983 130.997 114.738 130.997C114.738 130.997 114.616 131.364 114.372 131.73Z" fill="#212E36"/>
<path d="M108.628 131.608C108.873 131.853 109.117 131.975 109.484 132.097C109.606 131.853 109.728 131.608 109.85 131.364C109.606 131.242 109.239 131.242 108.873 131.119C108.751 131.364 108.628 131.486 108.628 131.608Z" fill="#212E36"/>
<path d="M118.159 141.75C117.915 141.75 117.671 141.75 117.548 141.75C117.548 141.75 117.548 141.75 117.548 141.872C117.426 142.239 117.182 142.605 117.06 142.85C117.304 142.605 117.671 142.483 117.915 142.239C118.037 142.117 118.159 142.117 118.282 141.995C118.159 141.872 118.159 141.75 118.159 141.75Z" fill="#212E36"/>
<path d="M111.928 146.027C111.561 146.027 111.195 146.027 110.828 146.027C110.828 146.271 110.95 146.638 110.95 146.638C111.317 146.638 111.561 146.516 111.928 146.516C112.05 146.271 111.928 146.149 111.928 146.027Z" fill="#212E36"/>
<path fill-rule="evenodd" clip-rule="evenodd" d="M130.868 146.149L57.9189 146.882C56.3304 146.882 55.1085 148.226 55.1085 149.815V162.767C55.1085 164.356 56.4526 165.7 57.9189 165.7H130.134L130.868 146.149Z" fill="#F8AD4D"/>
<path d="M63.7842 163.134H59.1409C58.5299 163.134 58.1633 162.645 58.1633 162.156V152.014C58.1633 151.403 58.6521 151.037 59.1409 151.037H63.7842V163.134Z" fill="#212E36" stroke="#212E36" stroke-width="0.5" stroke-linecap="round" stroke-linejoin="round"/>
<path fill-rule="evenodd" clip-rule="evenodd" d="M63.7841 153.114H127.079V148.593L63.7841 150.915V153.114Z" fill="white" stroke="#212E36" stroke-width="0.5" stroke-linecap="round" stroke-linejoin="round"/>
<path d="M127.079 153.114H63.7841V156.413H127.079V153.114Z" fill="white" stroke="#212E36" stroke-width="0.5" stroke-linecap="round" stroke-linejoin="round"/>
<path fill-rule="evenodd" clip-rule="evenodd" d="M63.7841 163.134L127.079 163.623V161.912L63.7841 159.835V163.134Z" fill="white" stroke="#212E36" stroke-width="0.5" stroke-linecap="round" stroke-linejoin="round"/>
<path d="M127.079 156.535V160.201" stroke="#212E36" stroke-width="0.5" stroke-linecap="round" stroke-linejoin="round"/>
<path d="M255.503 77.4772C256.481 78.2103 257.703 79.3101 258.802 80.8985C259.658 82.1205 260.269 82.9758 260.024 84.0755C259.78 86.1528 257.336 86.5194 257.092 86.6416C255.625 86.6416 253.182 84.9309 252.082 82.487C251.715 81.5095 250.127 76.4996 252.571 76.1331C253.915 75.8887 253.915 77.4772 255.503 77.4772Z" fill="#212E36" stroke="#212E36" stroke-width="0.5" stroke-linecap="round" stroke-linejoin="round"/>
<path d="M249.882 85.2975C248.049 86.0306 240.84 86.6416 238.885 86.3972C233.142 85.9084 220.801 85.664 219.823 85.0531C217.501 83.5868 217.868 77.2328 217.624 74.7889C217.624 74.7889 218.235 74.5446 218.357 75.0333C218.479 75.8887 219.09 78.0881 219.09 77.9659C219.334 77.8438 219.09 76.9884 219.334 73.3226C219.334 72.8339 218.723 71.1232 219.09 70.2678C219.334 69.5347 220.067 69.9013 220.067 69.9013C220.067 69.9013 220.923 72.5895 220.923 73.3226C221.045 75.1555 220.923 76.2553 221.656 77.355C222.511 78.8213 222.878 80.2876 222.878 80.2876C222.878 80.2876 242.673 79.4322 244.506 78.8213L265.279 75.3999L268.333 84.0755L249.882 85.2975Z" fill="white" stroke="#212E36" stroke-width="0.5" stroke-linecap="round" stroke-linejoin="round"/>
<path d="M219.212 78.0881C219.334 78.5769 219.579 79.1879 219.701 79.6766Z" fill="white"/>
<path d="M219.212 78.0881C219.334 78.5769 219.579 79.1879 219.701 79.6766" stroke="#212E36" stroke-width="0.5" stroke-linecap="round" stroke-linejoin="round"/>
<path d="M316.721 125.743C312.689 124.643 308.779 123.421 304.747 122.322C303.891 124.643 294.971 125.499 294.238 127.82C302.303 131.73 311.711 131.975 316.355 133.197C316.599 130.753 316.721 128.309 316.721 125.743Z" fill="white" stroke="#212E36" stroke-width="0.5" stroke-linecap="round" stroke-linejoin="round"/>
<path fill-rule="evenodd" clip-rule="evenodd" d="M263.446 63.6695C263.446 63.6695 265.645 64.1582 267.234 65.1358C266.378 71.4898 270.533 69.5347 270.533 69.5347L271.51 69.9013C271.633 68.3128 271.755 66.7243 271.877 65.258C271.877 65.258 273.832 61.9588 271.388 60.4925C270.533 60.0037 268.211 59.2706 266.501 59.5149C264.912 58.293 263.079 59.1484 262.713 60.3703C262.346 61.47 262.59 62.6919 263.446 63.6695Z" fill="white" stroke="#212E36" stroke-width="0.5" stroke-linecap="round" stroke-linejoin="round"/>
<path d="M279.208 72.9561C277.986 71.612 271.144 67.9462 271.022 67.3352C270.533 63.7917 268.7 66.3577 268.578 66.3577L267.722 65.7468C267.478 65.1358 267.234 64.647 266.989 64.0361C266.378 63.5473 265.889 63.1807 265.279 62.692C264.668 62.8141 264.057 62.8141 263.568 62.9363C263.568 63.9139 262.59 71.2454 264.179 71.7342C264.912 71.9785 266.256 71.7342 266.745 71.3676C267.967 72.5895 270.288 75.8887 271.51 77.1106C272.732 76.3775 277.986 73.9336 279.208 72.9561Z" fill="white" stroke="#212E36" stroke-width="0.5" stroke-linecap="round" stroke-linejoin="round"/>
<path d="M263.934 65.9911C263.69 66.7243 262.957 67.0909 263.079 67.4574C263.079 67.7018 263.934 67.824 263.934 67.824" fill="white"/>
<path d="M263.934 65.9911C263.69 66.7243 262.957 67.0909 263.079 67.4574C263.079 67.7018 263.934 67.824 263.934 67.824" stroke="#212E36" stroke-width="0.5" stroke-linecap="round" stroke-linejoin="round"/>
<path d="M318.065 136.374C318.31 135.641 318.676 135.03 319.287 134.663C318.921 135.396 318.676 136.129 318.31 136.862C318.31 136.74 318.188 136.496 318.065 136.374Z" fill="white" stroke="#212E36" stroke-width="0.5" stroke-linecap="round" stroke-linejoin="round"/>
<path d="M320.998 136.496C320.265 136.985 319.898 137.718 319.654 138.451C319.532 138.329 319.41 138.207 319.287 137.962C319.654 137.351 319.898 136.252 320.998 136.496Z" fill="white" stroke="#212E36" stroke-width="0.5" stroke-linecap="round" stroke-linejoin="round"/>
<path d="M323.686 147.127C322.831 146.638 320.509 139.673 320.509 139.429C320.143 139.184 319.898 138.818 319.654 138.573C320.02 137.84 320.265 136.985 320.998 136.618C319.898 136.374 319.654 137.473 319.165 138.084C318.798 137.718 318.554 137.351 318.432 136.985C318.798 136.252 319.043 135.518 319.409 134.785C318.798 135.152 318.432 135.763 318.188 136.496C317.332 135.03 316.843 134.052 314.277 133.319C313.666 133.197 313.178 132.097 313.666 131.486C316.11 131.486 318.554 125.621 315.377 126.11C314.888 126.232 314.644 125.743 314.766 125.376C314.766 125.376 321.731 125.621 323.931 124.888C325.519 131.853 326.252 142.117 325.152 147.738C324.786 147.615 324.419 147.371 323.686 147.127Z" fill="white" stroke="#212E36" stroke-width="0.5" stroke-linecap="round" stroke-linejoin="round"/>
<path d="M320.998 137.229C320.998 137.229 321.487 136.496 322.342 136.496C323.198 136.374 322.953 136.496 322.953 136.496C323.075 136.252 324.664 134.907 325.03 134.907C325.397 138.695 325.641 143.95 324.786 147.615C324.786 147.615 323.686 147.615 323.198 146.76C322.709 145.905 320.632 140.039 320.509 139.795C320.387 139.551 320.998 137.229 320.998 137.229Z" fill="white" stroke="#212E36" stroke-width="0.5" stroke-linecap="round" stroke-linejoin="round"/>
<path d="M323.32 146.638C324.542 145.905 323.686 139.306 323.075 138.818C322.464 138.451 320.387 139.184 320.387 139.184C320.876 141.139 321.854 144.805 323.32 146.638Z" fill="white" stroke="#212E36" stroke-width="0.5" stroke-linecap="round" stroke-linejoin="round"/>
<path d="M319.898 125.254C320.998 124.888 322.587 125.01 323.564 124.643C323.931 125.743 324.664 130.631 324.786 131.73L320.021 129.042C319.898 127.942 320.143 126.232 319.898 125.254Z" fill="white" stroke="#212E36" stroke-width="0.5" stroke-linecap="round" stroke-linejoin="round"/>
<path d="M315.988 133.808V132.219C315.011 132.097 314.155 131.853 313.178 131.73C313.178 131.975 313.178 132.219 313.3 132.464C313.667 133.197 314.4 133.441 315.988 133.808Z" fill="white" stroke="#212E36" stroke-width="0.5" stroke-linecap="round" stroke-linejoin="round"/>
<path d="M313.911 131.853L315.499 130.631L316.599 131.73L315.744 132.708L313.911 131.853Z" fill="white" stroke="#212E36" stroke-width="0.5" stroke-linecap="round" stroke-linejoin="round"/>
<path d="M324.786 147.493C325.153 144.316 320.021 128.553 322.098 124.277C322.342 123.91 324.297 124.032 324.908 124.032L326.375 148.226C325.764 148.349 325.03 148.104 324.786 147.493Z" fill="white" stroke="#212E36" stroke-width="0.5" stroke-linecap="round" stroke-linejoin="round"/>
<path d="M264.912 154.336C264.179 154.092 263.934 153.358 263.201 152.87C263.323 152.747 263.446 152.747 263.69 152.625C264.179 152.992 264.79 153.481 264.912 154.336Z" fill="white" stroke="#212E36" stroke-width="0.5" stroke-linecap="round" stroke-linejoin="round"/>
<path d="M252.937 157.513C253.426 156.78 260.635 154.702 260.757 154.702C261.735 153.847 262.468 153.236 263.201 152.87C263.812 153.358 264.179 154.092 264.912 154.336C264.79 153.481 264.179 152.992 263.69 152.625C265.279 151.77 266.378 151.281 267.356 148.715C267.6 148.104 268.7 147.615 269.189 148.104C269.067 150.548 274.81 153.236 274.565 150.059C274.565 149.57 274.932 149.326 275.421 149.448C275.421 149.448 274.81 156.413 275.543 158.613C268.578 159.957 258.314 160.079 252.571 158.735C252.448 158.613 252.571 158.246 252.937 157.513Z" fill="white" stroke="#212E36" stroke-width="0.5" stroke-linecap="round" stroke-linejoin="round"/>
<path d="M262.835 155.436C262.835 155.436 263.446 155.924 263.568 156.78C263.568 157.635 263.568 157.391 263.568 157.391C263.812 157.513 265.034 159.101 265.156 159.59C261.368 159.835 256.114 159.835 252.571 158.735C252.571 158.735 252.693 157.635 253.548 157.146C254.403 156.658 260.391 154.947 260.635 154.825C260.88 154.702 262.835 155.436 262.835 155.436Z" fill="white" stroke="#212E36" stroke-width="0.5" stroke-linecap="round" stroke-linejoin="round"/>
<path d="M253.304 157.146C253.915 158.49 260.635 157.879 261.124 157.269C261.613 156.658 260.391 154.702 260.391 154.702C258.069 156.047 255.259 155.558 253.304 157.146Z" fill="white" stroke="#212E36" stroke-width="0.5" stroke-linecap="round" stroke-linejoin="round"/>
<path d="M274.932 154.825C275.176 155.924 275.054 157.513 275.421 158.613C274.199 158.979 269.189 158.979 268.089 159.101L272.121 155.069C272.977 154.947 273.832 154.947 274.932 154.825Z" fill="white" stroke="#212E36" stroke-width="0.5" stroke-linecap="round" stroke-linejoin="round"/>
<path d="M266.5 150.548L268.089 150.67C268.333 149.693 268.578 148.837 268.7 147.86C268.578 147.86 268.211 147.86 267.967 147.86C267.234 148.226 266.989 148.959 266.5 150.548Z" fill="white" stroke="#212E36" stroke-width="0.5" stroke-linecap="round" stroke-linejoin="round"/>
<path d="M268.578 148.471L269.678 150.181L268.578 151.159L267.6 150.304L268.578 148.471Z" fill="white" stroke="#212E36" stroke-width="0.5" stroke-linecap="round" stroke-linejoin="round"/>
<path d="M252.448 158.735C255.625 159.224 271.144 156.413 275.42 158.613C276.276 159.101 275.909 160.568 275.665 161.179C275.665 161.301 275.42 161.423 275.298 161.423C272.732 161.545 252.57 161.301 252.448 161.179C251.226 161.056 251.471 158.979 252.448 158.735Z" fill="white" stroke="#212E36" stroke-width="0.5" stroke-linecap="round" stroke-linejoin="round"/>
<path d="M297.782 68.5572L289.961 60.9813C288.128 59.7593 288.617 59.7593 286.906 57.5599C286.296 56.8267 286.051 56.338 285.318 55.4826C285.196 55.3604 284.951 55.116 284.585 54.7495C284.585 54.5051 284.707 54.3829 284.951 54.2607C285.196 54.1385 285.562 54.2607 286.418 54.8717C286.784 55.1161 287.273 55.3604 287.762 55.727C287.762 54.8717 287.64 53.7719 287.395 52.6722C287.273 52.0612 287.151 51.5725 287.029 51.0837C286.662 50.7171 286.418 50.3506 286.418 50.1062C286.173 49.7396 285.929 49.1286 286.173 48.7621C286.296 48.6399 286.296 48.5177 286.418 48.5177C286.906 48.8843 287.517 49.6174 288.006 50.5949C288.495 51.5725 288.617 52.4278 288.739 52.9166C288.617 52.55 288.617 52.0613 288.373 51.5725C288.251 51.0837 288.128 50.7171 287.884 50.3506C287.884 50.2284 287.762 50.1062 287.64 49.8618C287.517 49.6174 287.517 49.6174 287.395 49.4952C287.395 49.4952 286.906 48.7621 287.273 48.2733C287.273 48.2733 287.395 48.1511 287.517 48.0289C288.617 49.1286 289.472 51.3281 289.595 52.3056C289.472 51.9391 289.473 51.8169 289.473 51.5725C289.228 50.9615 289.106 50.3506 288.739 49.6174C288.495 49.2508 288.373 49.0065 288.373 48.6399C288.373 48.3955 288.495 48.2733 288.617 48.1511C288.739 48.3955 289.106 48.7621 289.35 49.1286C289.839 49.7396 289.839 49.7396 289.839 49.8618C289.961 49.984 290.083 50.2284 290.328 51.3281C290.328 51.5725 290.45 51.9391 290.45 52.1834C290.572 51.9391 290.694 51.5725 290.694 51.2059C290.817 50.5949 290.817 49.984 290.817 49.4952C290.939 49.4952 291.061 49.373 291.183 49.4952C291.428 49.6174 291.55 50.1062 291.55 50.3506C292.161 54.6273 293.749 54.9939 293.994 57.3155L304.747 66.2355C304.747 66.2355 309.268 71.8564 305.846 74.3002C301.57 77.355 293.26 75.0333 293.26 75.0333L295.582 69.0459L297.782 68.5572Z" fill="white" stroke="#212E36" stroke-width="0.5" stroke-linecap="round" stroke-linejoin="round"/>
<path fill-rule="evenodd" clip-rule="evenodd" d="M288.617 53.4054C288.251 51.5725 287.64 50.1062 287.029 49.1286Z" fill="white"/>
<path d="M288.617 53.4054C288.251 51.5725 287.64 50.1062 287.029 49.1286" stroke="#212E36" stroke-width="0.5" stroke-linecap="round" stroke-linejoin="round"/>
<path fill-rule="evenodd" clip-rule="evenodd" d="M289.473 53.0388C289.106 51.2059 289.106 50.595 288.128 49.373Z" fill="white"/>
<path d="M289.473 53.0388C289.106 51.2059 289.106 50.595 288.128 49.373" stroke="#212E36" stroke-width="0.5" stroke-linecap="round" stroke-linejoin="round"/>
<path fill-rule="evenodd" clip-rule="evenodd" d="M297.659 68.435C298.515 68.9237 299.981 70.1457 300.836 70.6344Z" fill="white"/>
<path d="M297.659 68.435C298.515 68.9237 299.981 70.1457 300.836 70.6344" stroke="#212E36" stroke-width="0.5" stroke-linecap="round" stroke-linejoin="round"/>
<path fill-rule="evenodd" clip-rule="evenodd" d="M285.074 85.5418C291.794 87.6191 296.438 92.018 296.804 96.7835C296.804 97.761 296.804 99.1051 296.071 100.694C295.582 108.758 295.338 110.102 294.849 118.045L300.103 119.145C305.358 120.244 309.39 122.077 311.956 123.666C311.467 125.01 310.978 126.598 310.612 128.309C310.123 130.631 310.001 132.708 310.001 134.541C304.747 134.663 297.659 134.174 289.717 131.853C284.341 130.386 282.385 123.788 282.019 119.878C280.675 121.466 279.453 122.933 278.109 124.521C278.842 128.92 279.453 134.785 278.842 141.506C278.353 145.905 277.62 149.815 276.642 152.992C272.244 152.747 267.845 152.381 263.446 152.136C263.69 142.728 263.934 133.441 264.179 124.032C267.845 116.945 272.488 102.649 276.276 95.5616C279.453 89.8186 281.774 91.4071 285.074 85.5418Z" fill="white"/>
<path d="M297.537 68.5572C297.537 68.5572 298.759 69.7791 297.537 73.567C297.293 74.4224 297.537 76.6218 297.537 76.6218L290.45 76.1331L294.849 84.5643C294.849 84.5643 295.582 86.886 293.749 89.2076C292.772 90.3073 287.517 91.4071 285.44 92.2624C280.675 94.0953 276.154 95.6838 276.154 95.6838L268.7 85.0531L257.092 87.0082L259.658 83.8312L252.326 75.6443C252.326 75.6443 257.092 75.1555 263.812 74.789C271.144 74.4224 276.398 69.4125 279.331 67.5796C280.43 66.8465 281.652 66.6021 282.996 66.7243L297.537 68.5572Z" fill="#F2F0EB"/>
<path d="M290.45 76.1331L294.849 84.5643C294.849 84.5643 295.582 86.886 293.749 89.2076C292.772 90.3073 287.517 91.4071 285.44 92.2624C280.675 94.0953 276.154 95.6838 276.154 95.6838L268.7 85.0531L257.092 87.0082C257.092 87.0082 259.047 83.9534 255.748 81.6317C254.281 80.6542 252.326 75.6443 252.326 75.6443C252.326 75.6443 259.047 75.2777 266.989 74.178C271.266 73.567 278.231 68.3128 279.331 67.5796C280.43 66.8465 281.652 66.6021 282.996 66.7243L297.415 68.435C297.415 68.435 298.637 69.6569 297.415 73.4449C297.171 74.3002 297.415 76.4997 297.415 76.4997" fill="#D8E9F9"/>
<mask id="mask0_295_19433" style="mask-type:luminance" maskUnits="userSpaceOnUse" x="252" y="66" width="46" height="30">
<path d="M290.45 76.1331L294.849 84.5643C294.849 84.5643 295.582 86.886 293.749 89.2076C292.772 90.3073 287.517 91.4071 285.44 92.2624C280.675 94.0953 276.154 95.6838 276.154 95.6838L268.7 85.0531L257.092 87.0082C257.092 87.0082 259.047 83.9534 255.748 81.6317C254.281 80.6542 252.326 75.6443 252.326 75.6443C252.326 75.6443 259.047 75.2777 266.989 74.178C271.266 73.567 278.231 68.3128 279.331 67.5796C280.43 66.8465 281.652 66.6021 282.996 66.7243L297.415 68.435C297.415 68.435 298.637 69.6569 297.415 73.4449C297.171 74.3002 297.415 76.4997 297.415 76.4997" fill="white"/>
</mask>
<g mask="url(#mask0_295_19433)">
<path d="M289.465 79.4771C291.651 78.4185 293.043 76.7726 292.572 75.8007C292.102 74.8288 289.948 74.899 287.761 75.9575C285.574 77.0161 284.183 78.662 284.653 79.6339C285.124 80.6058 287.278 80.5356 289.465 79.4771Z" fill="white"/>
<path d="M263.314 87.9156C265.5 86.8571 266.892 85.2111 266.421 84.2392C265.951 83.2674 263.797 83.3376 261.61 84.3961C259.423 85.4546 258.032 87.1006 258.502 88.0725C258.973 89.0443 261.127 88.9741 263.314 87.9156Z" fill="white"/>
<path d="M281.636 76.5692C283.157 75.133 283.789 73.3323 283.048 72.5471C282.307 71.7619 280.473 72.2896 278.951 73.7257C277.43 75.1619 276.798 76.9627 277.539 77.7479C278.28 78.5331 280.114 78.0054 281.636 76.5692Z" fill="white"/>
<path d="M289.717 70.0235C291.305 68.5572 291.305 67.824 289.961 66.4799C289.228 65.7468 287.395 66.2355 285.807 67.7018C284.218 69.1681 282.996 70.3901 284.341 71.7342C285.318 72.8339 288.128 71.4898 289.717 70.0235Z" fill="white"/>
<path d="M297.049 77.1106C299.126 77.4772 299.737 77.1106 299.981 75.1555C300.103 74.178 298.637 72.9561 296.56 72.5895C294.483 72.2229 292.772 71.8564 292.405 73.8114C292.161 75.1555 294.971 76.744 297.049 77.1106Z" fill="white"/>
<path d="M281.652 70.0235C283.485 68.9237 283.607 68.3128 282.752 66.6021C282.263 65.6246 280.308 65.7467 278.475 66.8465C276.643 67.9462 275.176 68.8015 276.154 70.39C276.765 71.7342 279.82 71.1232 281.652 70.0235Z" fill="white"/>
<path d="M275.054 73.8114C276.276 72.1007 276.154 71.3676 274.565 70.2679C273.71 69.6569 271.999 70.6344 270.777 72.3451C269.555 74.0558 268.578 75.5221 270.166 76.6218C271.266 77.4772 273.832 75.6443 275.054 73.8114Z" fill="white"/>
<path d="M266.867 79.7988C268.7 78.8213 268.944 78.2103 268.211 76.8662C267.723 76.1331 265.89 76.2553 264.057 77.355C262.224 78.3325 260.635 79.1879 261.491 80.6542C261.98 81.5095 265.034 80.7764 266.867 79.7988Z" fill="white"/>
<path d="M283.257 87.3022C285.444 86.2437 286.836 84.5978 286.365 83.6259C285.895 82.654 283.741 82.7242 281.554 83.7827C279.367 84.8412 277.976 86.4872 278.446 87.4591C278.917 88.431 281.071 88.3608 283.257 87.3022Z" fill="white"/>
<path d="M276.663 95.8621C278.849 94.8036 280.241 93.1577 279.77 92.1858C279.3 91.2139 277.146 91.2841 274.959 92.3426C272.772 93.4011 271.381 95.0471 271.851 96.019C272.322 96.9909 274.476 96.9206 276.663 95.8621Z" fill="white"/>
<path d="M297.061 85.8729C297.62 84.9493 296.576 83.2937 294.729 82.1751C292.881 81.0565 290.931 80.8983 290.371 81.822C289.812 82.7456 290.856 84.4012 292.703 85.5198C294.551 86.6384 296.501 86.7965 297.061 85.8729Z" fill="white"/>
<path d="M289.002 89.8546C290.572 88.3721 291.244 86.5338 290.503 85.7486C289.762 84.9634 287.888 85.5286 286.317 87.0111C284.747 88.4937 284.075 90.332 284.816 91.1172C285.557 91.9024 287.431 91.3371 289.002 89.8546Z" fill="white"/>
<path d="M272.352 89.5541C274.497 89.3061 276.136 88.2356 276.012 87.163C275.888 86.0904 274.048 85.4218 271.903 85.6697C269.758 85.9176 268.119 86.9881 268.243 88.0608C268.367 89.1334 270.207 89.802 272.352 89.5541Z" fill="white"/>
<path d="M273.832 83.098C276.031 82.8536 277.987 83.4646 278.109 81.7539C278.231 80.6542 275.543 79.0657 273.343 79.3101C271.144 79.5544 267.111 80.2876 267.234 82.1205C267.478 83.5868 271.633 83.3424 273.832 83.098Z" fill="white"/>
<path d="M253.548 79.1879C255.748 78.9435 257.703 79.5544 257.825 77.8438C257.947 76.744 255.259 75.1555 253.059 75.3999C250.86 75.6443 246.828 76.3775 246.95 78.2103C247.194 79.6766 251.471 79.4323 253.548 79.1879Z" fill="white"/>
</g>
<path d="M279.208 101.06L282.019 119.633" stroke="#212E36" stroke-width="0.5" stroke-linecap="round" stroke-linejoin="round"/>
<path d="M265.523 67.5796C265.401 67.9462 265.156 68.3128 264.79 68.435Z" fill="white"/>
<path d="M265.523 67.5796C265.401 67.9462 265.156 68.3128 264.79 68.435" stroke="#212E36" stroke-width="0.5" stroke-linecap="round" stroke-linejoin="round"/>
<path d="M266.256 74.0558C268.211 73.3226 270.044 72.3451 271.999 71.612C273.465 70.6344 276.887 70.1457 278.353 69.0459C278.842 69.2903 279.453 70.1457 279.208 70.5122C279.208 70.5122 275.665 71.612 274.076 71.9785C272.977 72.2229 267.722 75.2777 267.356 75.0333C267.234 75.2777 266.378 74.178 266.256 74.0558Z" fill="#212E36"/>
<path d="M264.057 136.129L264.179 128.065C264.179 125.499 264.79 122.933 265.767 120.489L269.311 112.18" stroke="#212E36" stroke-width="0.5" stroke-linecap="round" stroke-linejoin="round"/>
<path d="M286.418 75.1555L291.061 77.2328" stroke="#212E36" stroke-width="0.5" stroke-linecap="round" stroke-linejoin="round"/>
<path d="M267.234 82.2427L268.822 85.0531" stroke="#212E36" stroke-width="0.5" stroke-linecap="round" stroke-linejoin="round"/>
<path fill-rule="evenodd" clip-rule="evenodd" d="M265.89 65.9911C265.645 66.1133 265.401 65.9911 265.401 65.7468C265.401 65.5024 265.401 65.258 265.523 65.1358C265.523 65.1358 265.767 65.0136 266.012 65.3802C266.134 65.7467 265.89 65.9911 265.89 65.9911Z" fill="#212E36"/>
<path fill-rule="evenodd" clip-rule="evenodd" d="M123.047 53.4054C123.047 53.4054 120.725 54.9939 119.259 56.8267C123.169 63.9139 117.304 63.6695 117.304 63.6695L116.204 64.5248C115.349 62.692 114.494 60.8591 113.638 59.1484C113.638 59.1484 109.728 56.0936 112.05 53.2832C112.783 52.3056 115.349 50.3506 117.426 49.984C118.77 47.7845 121.214 47.9067 122.436 49.373C123.291 50.1062 123.536 51.9391 123.047 53.4054Z" fill="#212E36" stroke="#212E36" stroke-miterlimit="10"/>
<path d="M95.6761 71.612C96.0427 70.6344 110.339 68.435 111.928 66.3577C113.761 63.9139 115.716 61.3479 115.716 60.9813C115.105 57.3155 117.304 57.5599 118.037 59.0262C117.793 58.6596 118.526 58.2931 118.77 57.8043C118.77 57.0711 118.893 56.2158 118.893 55.4826C119.381 54.7495 119.87 53.8941 120.359 53.161C121.092 53.0388 121.825 52.7944 122.558 52.6722C123.047 53.8941 127.446 62.2032 125.858 63.5473C125.002 64.2805 123.414 64.5248 122.681 64.2805C122.07 65.5024 122.558 66.1133 121.825 68.1906C121.336 69.6569 145.53 73.2005 145.164 74.0558C144.186 73.8114 132.089 78.5769 119.626 78.0882C108.384 77.5994 96.5315 71.8564 95.6761 71.612Z" fill="white" stroke="#212E36" stroke-width="0.5" stroke-linecap="round" stroke-linejoin="round"/>
<path d="M123.658 56.5824C124.269 57.1933 125.124 57.3155 125.246 57.8043C125.246 58.0487 124.513 58.6596 124.513 58.6596" fill="white"/>
<path d="M123.658 56.5824C124.269 57.1933 125.124 57.3155 125.246 57.8043C125.246 58.0487 124.513 58.6596 124.513 58.6596" stroke="#212E36" stroke-width="0.5" stroke-linecap="round" stroke-linejoin="round"/>
<path d="M122.192 59.2706C122.192 59.2706 123.169 60.2481 124.147 59.8815" stroke="#212E36" stroke-width="0.5" stroke-linecap="round" stroke-linejoin="round"/>
<path fill-rule="evenodd" clip-rule="evenodd" d="M121.825 57.4377C121.703 57.1933 121.825 56.9489 121.947 56.8267C122.069 56.7045 122.436 56.8267 122.436 57.0711C122.436 57.3155 122.436 57.5599 122.314 57.6821C122.192 57.8043 121.947 57.6821 121.825 57.4377Z" fill="#212E36"/>
<path d="M183.41 88.4745C190.253 87.7413 200.639 90.6739 202.716 89.8186C206.871 87.9857 207.482 77.355 208.459 73.4448C208.459 73.4448 207.482 72.8339 207.237 73.6892C206.749 74.9111 205.527 78.4547 205.405 78.4547C205.038 78.3325 205.527 76.744 206.016 70.7566C206.138 69.9013 207.36 67.3352 207.115 65.7467C206.749 64.4026 205.649 64.8914 205.649 64.8914C205.649 64.8914 203.694 69.1681 203.572 70.2678C203.083 73.3226 202.961 75.0333 201.617 76.8662C199.906 79.0657 198.928 81.5095 198.928 81.5095C198.928 81.5095 189.031 80.4098 185.854 79.7988" fill="white"/>
<path d="M183.41 88.4745C190.253 87.7413 200.639 90.6739 202.716 89.8186C206.871 87.9857 207.482 77.355 208.459 73.4448C208.459 73.4448 207.482 72.8339 207.237 73.6892C206.749 74.9111 205.527 78.4547 205.405 78.4547C205.038 78.3325 205.527 76.744 206.016 70.7566C206.138 69.9013 207.36 67.3352 207.115 65.7467C206.749 64.4026 205.649 64.8914 205.649 64.8914C205.649 64.8914 203.694 69.1681 203.572 70.2678C203.083 73.3226 202.961 75.0333 201.617 76.8662C199.906 79.0657 198.928 81.5095 198.928 81.5095C198.928 81.5095 189.031 80.4098 185.854 79.7988" stroke="#212E36" stroke-width="0.5" stroke-linecap="round" stroke-linejoin="round"/>
<path d="M205.405 78.3325C205.038 79.1879 204.427 80.0432 204.061 80.8985Z" fill="white"/>
<path d="M205.405 78.3325C205.038 79.1879 204.427 80.0432 204.061 80.8985" stroke="#212E36" stroke-width="0.5" stroke-linecap="round" stroke-linejoin="round"/>
<path d="M146.386 174.864L146.753 174.498C148.708 174.131 150.54 173.887 152.373 173.52C157.383 181.829 161.293 183.051 163.248 184.273C163.737 184.517 165.326 185.495 165.814 187.083C166.181 188.427 165.692 189.649 165.204 190.505C157.505 187.206 148.83 185.617 141.01 182.318C141.743 180.852 142.354 179.507 143.087 178.041C144.187 176.941 145.286 175.964 146.386 174.864Z" fill="white" stroke="#212E36" stroke-width="0.5" stroke-linecap="round" stroke-linejoin="round"/>
<path d="M142.353 182.44L141.132 185.617L140.521 185.495C140.521 185.495 140.398 183.784 138.077 182.807C135.755 181.829 134.411 182.929 134.411 182.929L128.424 180.485L129.157 178.408L130.012 177.43L142.353 182.44Z" fill="white" stroke="#212E36" stroke-width="0.5" stroke-linecap="round" stroke-linejoin="round"/>
<path d="M152.618 174.009C154.573 172.054 150.907 169.732 149.074 169.732C146.019 169.854 145.164 170.587 143.087 170.587C141.987 170.587 136.244 167.044 134.167 164.478L132.089 169.488C132.089 169.488 139.543 175.109 141.865 176.33C144.675 175.72 149.807 174.375 152.618 174.009Z" fill="white" stroke="#212E36" stroke-width="0.5" stroke-linecap="round" stroke-linejoin="round"/>
<path d="M132.578 168.144L142.231 175.109L128.057 177.064L132.578 168.144Z" fill="#212E36" stroke="#212E36" stroke-width="0.5" stroke-linecap="round" stroke-linejoin="round"/>
<path d="M128.057 177.064L142.231 175.109L146.997 174.009L153.473 183.173L143.698 179.263L142.354 182.44L130.012 177.43L128.057 177.064Z" fill="white" stroke="#212E36" stroke-width="0.5" stroke-linecap="round" stroke-linejoin="round"/>
<path d="M165.326 189.772L165.57 190.016L164.959 193.193L141.132 185.617L142.354 182.44L165.326 189.772Z" fill="white" stroke="#212E36" stroke-width="0.5" stroke-linecap="round" stroke-linejoin="round"/>
<path d="M151.518 188.061C151.885 187.083 152.984 186.106 153.84 186.472L164.837 189.527C165.814 189.894 166.181 190.994 165.814 191.849L165.326 193.56L150.785 189.772L151.518 188.061Z" fill="white" stroke="#212E36" stroke-width="0.5" stroke-linecap="round" stroke-linejoin="round"/>
<path d="M126.591 177.919C126.957 176.941 127.691 176.33 128.546 176.819L133.922 179.019C134.9 179.385 135.266 180.485 134.9 181.34L134.289 182.929L125.858 179.507L126.591 177.919Z" fill="white" stroke="#212E36" stroke-width="0.5" stroke-linecap="round" stroke-linejoin="round"/>
<path d="M141.132 183.784C141.498 182.807 142.598 182.44 143.453 182.807L148.83 185.006C149.807 185.373 150.174 186.472 149.807 187.328L149.196 188.916L140.521 185.373L141.132 183.784Z" fill="white" stroke="#212E36" stroke-width="0.5" stroke-linecap="round" stroke-linejoin="round"/>
<path d="M153.962 174.986L149.563 175.964" stroke="#212E36" stroke-width="0.5" stroke-linecap="round" stroke-linejoin="round"/>
<path d="M155.306 177.064L150.907 177.919" stroke="#212E36" stroke-width="0.5" stroke-linecap="round" stroke-linejoin="round"/>
<path d="M156.528 178.896L152.251 179.874" stroke="#212E36" stroke-width="0.5" stroke-linecap="round" stroke-linejoin="round"/>
<path d="M141.742 101.06C151.762 109.125 161.904 117.19 171.924 125.254C172.657 126.11 174.245 128.309 174.612 131.486C175.101 136.007 172.657 139.306 172.168 139.917C164.959 149.204 157.139 160.69 149.929 169.977C147.73 159.468 146.141 153.236 144.431 145.905C147.363 141.384 150.662 137.107 153.595 132.586C148.707 128.676 141.254 123.421 136.366 119.389L136.244 119.145C135.022 115.601 133.8 112.18 132.578 108.881L136.244 119.145C139.543 128.676 142.598 138.94 145.408 149.937C148.219 161.301 150.418 172.054 152.007 182.074C145.53 181.951 139.176 181.829 132.7 181.707C130.379 170.832 128.057 159.957 125.613 149.204C120.114 135.274 114.738 121.344 109.239 107.292C114.249 105.704 119.259 103.993 124.269 102.282L141.742 101.06Z" fill="#212E36"/>
<path d="M136.244 119.145L136.366 119.389C141.254 123.421 148.707 128.676 153.595 132.586C150.662 137.107 147.363 141.384 144.431 145.905C146.141 153.236 147.73 159.468 149.929 169.977C157.139 160.69 164.959 149.204 172.168 139.917C172.657 139.306 175.101 136.007 174.612 131.486C174.245 128.309 172.657 126.11 171.924 125.254C161.904 117.19 151.762 109.125 141.742 101.06L124.269 102.282C119.259 103.993 114.249 105.704 109.239 107.292C114.738 121.344 120.114 135.274 125.613 149.204C128.057 159.957 130.379 170.832 132.7 181.707C139.176 181.829 145.53 181.951 152.007 182.074C150.418 172.054 148.219 161.301 145.408 149.937C142.598 138.94 139.543 128.676 136.244 119.145ZM136.244 119.145C135.022 115.601 133.8 112.18 132.578 108.881L136.244 119.145Z" stroke="white" stroke-width="0.5" stroke-linecap="round" stroke-linejoin="round"/>
<path d="M190.008 77.8438C178.767 76.1331 167.525 74.3002 156.283 72.5895C146.875 71.1232 137.466 69.6569 128.057 68.1906C127.568 69.6569 126.469 71.9785 124.147 73.2005C120.237 75.2777 114.127 73.3227 110.095 67.7018C109.117 67.0909 103.13 63.0585 97.1425 65.258C91.8883 67.2131 89.811 72.3451 89.6888 72.7117C85.0455 84.9309 102.519 101.182 104.841 103.382C108.873 107.17 112.783 109.736 115.594 111.447C123.414 109.369 133.8 103.26 141.62 101.182C141.254 94.4619 138.321 91.8958 137.955 85.1753C144.064 86.1528 150.418 87.1304 157.017 87.9857C168.258 89.3298 178.889 90.1852 189.031 90.7961C189.397 86.275 189.642 82.1205 190.008 77.8438Z" fill="#EA7303"/>
<path d="M91.6439 70.7566C92.0105 70.8788 92.2549 71.001 92.6215 71.001C92.3771 71.2454 92.2549 71.4898 92.1327 71.612C92.1327 71.7342 92.2549 71.7342 92.2549 71.8564C92.6215 71.7342 93.2324 71.612 93.3546 71.3676C93.7212 70.8788 93.4768 70.1457 92.8658 69.7791C92.6215 70.1457 92.1327 70.39 91.6439 70.7566Z" fill="#212E36"/>
<path d="M107.651 67.9462C107.529 67.7018 107.651 67.4574 107.407 67.3352C107.284 67.2131 107.04 66.9687 106.796 66.9687C106.429 66.9687 106.062 66.9687 105.696 67.0909C105.452 67.2131 105.329 67.3352 105.085 67.5796C105.329 67.7018 105.452 67.7018 105.696 67.824C106.185 67.9462 106.673 68.0684 107.162 68.1906C107.407 68.1906 107.529 68.0684 107.651 67.9462Z" fill="#212E36"/>
<path d="M101.663 67.3352C101.541 67.0909 101.663 66.8465 101.419 66.7243C101.297 66.6021 101.052 66.3577 100.808 66.3577C100.442 66.3577 100.075 66.3577 99.7084 66.4799C99.464 66.6021 99.3418 66.7243 99.0974 66.9687C99.3418 67.0909 99.464 67.0909 99.7084 67.2131C100.197 67.3353 100.686 67.4574 101.175 67.5796C101.419 67.5796 101.541 67.4574 101.663 67.3352Z" fill="#212E36"/>
<path d="M108.384 67.5796C107.895 68.8016 108.14 69.4125 109.117 69.9013C109.362 68.9237 108.751 68.435 108.384 67.5796Z" fill="#212E36"/>
<path d="M90.0554 76.1331C89.811 76.4996 89.6888 76.8662 89.6888 77.1106C89.6888 77.2328 89.9332 77.355 89.9332 77.355C90.1776 77.2328 90.422 77.1106 90.5442 76.8662L90.6664 76.744C90.9108 76.4996 91.033 76.3775 91.2773 76.1331C90.7886 76.1331 90.422 76.1331 90.0554 76.1331Z" fill="#212E36"/>
<path d="M105.818 69.5347C106.429 69.7791 106.918 69.6569 106.673 70.5122C106.673 70.6344 106.796 70.7566 106.918 70.8788C107.04 70.8788 107.284 70.8788 107.284 70.8788C107.284 70.39 107.284 69.9013 107.284 69.5347C107.284 69.4125 107.04 69.2903 106.918 69.2903C106.429 69.2903 106.062 69.4125 105.818 69.5347Z" fill="#212E36"/>
<path d="M96.6537 68.435C96.6537 68.6794 96.5315 68.9237 96.5315 69.1681C96.6537 69.1681 96.7759 69.1681 96.8981 69.0459C97.509 68.435 96.8981 67.9462 96.7759 67.4574C96.7759 67.3352 96.2871 67.4574 96.0427 67.3353C96.0427 67.5796 96.0427 67.824 96.0427 68.0684C96.1649 68.3128 96.5315 68.3128 96.6537 68.435Z" fill="#212E36"/>
<path d="M97.3868 65.3802C97.6312 65.9911 97.8756 66.4799 98.12 66.9687C98.9753 65.8689 98.9753 65.6246 97.3868 65.3802Z" fill="#212E36"/>
<path d="M104.596 67.824C103.985 67.9462 103.374 66.9687 102.641 68.0684C103.252 68.0684 103.985 68.1906 104.596 68.1906C104.596 68.0684 104.596 67.9462 104.596 67.824Z" fill="#212E36"/>
<path d="M94.6986 68.9237C94.6986 68.435 94.8208 68.0684 94.6986 67.9462C94.4542 67.824 94.0876 67.824 93.8433 67.7018C93.8433 67.9462 93.7211 68.1906 93.7211 68.435C93.9655 68.5572 94.2098 68.6794 94.6986 68.9237Z" fill="#212E36"/>
<path d="M95.7984 71.3676C95.7984 70.8788 95.7984 70.6344 95.7984 70.3901C95.7984 70.2679 95.1875 70.2679 95.0653 70.3901C94.9431 70.6344 94.9431 71.001 95.0653 71.2454C95.0653 71.2454 95.4319 71.2454 95.7984 71.3676Z" fill="#212E36"/>
<path d="M98.3644 72.1007C98.4866 71.7342 98.6088 71.3676 98.4866 71.2454C98.3644 71.1232 97.9978 71.1232 97.7534 71.1232C97.7534 71.3676 97.6312 71.612 97.6312 71.9785C97.7534 71.9785 98.12 71.9785 98.3644 72.1007Z" fill="#212E36"/>
<path d="M102.152 65.6245C102.275 65.258 102.397 64.8914 102.275 64.7692C102.152 64.647 101.786 64.647 101.541 64.647C101.541 64.8914 101.419 65.1358 101.419 65.5024C101.419 65.5024 101.786 65.5024 102.152 65.6245Z" fill="#212E36"/>
<path d="M93.1102 75.2777C92.6215 74.789 92.2549 74.3002 91.7661 73.8114C91.7661 74.5446 92.1327 75.1555 93.1102 75.2777Z" fill="#212E36"/>
<path d="M89.0777 80.2876C88.9555 79.921 89.0777 79.5544 88.8334 79.4322C88.7112 79.3101 88.3446 79.3101 88.1002 79.3101C88.1002 79.5544 87.978 79.921 88.1002 80.0432C88.3446 80.1654 88.589 80.1654 89.0777 80.2876Z" fill="#212E36"/>
<path d="M92.4991 78.4547C92.6213 78.2103 92.6213 77.8438 92.7435 77.4772C92.4991 77.4772 92.2548 77.355 92.0104 77.355C92.0104 77.7216 92.0104 77.9659 92.0104 78.3325C92.2548 78.3325 92.377 78.4547 92.4991 78.4547Z" fill="#212E36"/>
<path d="M102.03 69.6569C102.152 69.9013 102.152 70.0235 102.275 70.2679H102.397C102.763 70.39 103.13 70.39 103.496 70.5122C103.252 70.2679 104.596 69.7791 104.352 69.6569C104.23 69.5347 102.519 69.7791 102.397 69.6569C102.275 69.6569 102.152 69.6569 102.03 69.6569Z" fill="#212E36"/>
<path d="M110.462 69.7791C110.584 70.1457 110.706 70.5122 110.706 70.8788C110.95 70.7566 111.195 70.6344 111.195 70.5122C111.073 70.2679 110.95 69.9013 110.706 69.6569C110.706 69.7791 110.584 69.7791 110.462 69.7791Z" fill="#212E36"/>
<path d="M126.591 93.7287C127.08 93.2399 128.057 93.4843 127.568 92.3846C127.324 92.3846 127.08 92.2624 126.713 92.2624C126.591 92.2624 126.224 92.3846 126.224 92.5068C126.224 93.2399 125.613 93.8509 126.224 94.5841C126.346 94.8284 126.713 94.8284 126.957 95.0728C126.957 94.8284 126.957 94.4619 126.957 94.2175C126.835 93.9731 126.713 93.8509 126.591 93.7287Z" fill="#212E36"/>
<path d="M126.591 85.7862C126.102 85.5418 125.735 85.4197 125.247 85.2975C125.491 85.0531 125.735 85.0531 125.858 84.8087C125.98 84.5643 125.98 84.3199 125.98 84.0756C125.858 83.9534 125.369 83.8312 125.369 83.8312C125.124 84.3199 124.514 85.0531 124.636 85.5419C124.636 86.275 125.491 86.3972 126.591 85.7862Z" fill="#212E36"/>
<path d="M129.157 83.2202C128.668 82.8536 128.424 82.6092 128.301 82.6092C128.057 82.7314 127.813 82.9758 127.568 83.2202C127.69 83.3424 127.935 83.709 128.057 83.709C128.301 83.709 128.668 83.4646 129.157 83.2202Z" fill="#212E36"/>
<path d="M125.247 101.671C125.613 101.916 125.98 102.16 126.469 102.404C126.591 102.16 126.713 101.916 126.713 101.916C126.346 101.671 125.98 101.427 125.491 101.182C125.491 101.305 125.369 101.427 125.247 101.671Z" fill="#212E36"/>
<path d="M125.002 97.5167C125.491 98.0054 125.735 98.372 126.102 98.8608C126.591 97.6389 126.346 97.3945 125.002 97.5167Z" fill="#212E36"/>
<path d="M126.835 89.2076C126.346 89.3298 125.858 89.3298 125.002 89.452C125.491 89.6964 125.735 90.0629 125.98 89.9408C126.346 89.8186 126.713 89.5742 127.079 89.3298C126.957 89.3298 126.835 89.3298 126.835 89.2076Z" fill="#212E36"/>
<path d="M134.289 85.5418C134.411 86.275 134.656 86.7638 134.778 87.4969C135.022 87.1303 135.144 87.0081 135.266 86.886C135.633 86.886 136 86.7638 136.366 86.7638C136.366 86.5194 136.366 86.1528 136.244 86.0306C135.633 85.2975 134.9 85.4197 134.289 85.5418Z" fill="#212E36"/>
<path d="M133.189 91.7736C133.556 91.6514 133.8 91.5292 134.167 91.2849C134.167 91.6514 134.167 91.8958 134.289 92.1402C134.411 92.1402 134.411 92.2624 134.533 92.2624C134.778 91.8958 135.144 91.4071 135.022 91.0405C134.9 90.3073 134.167 90.0629 133.556 90.1851C133.434 90.6739 133.311 91.1627 133.189 91.7736Z" fill="#212E36"/>
<path d="M130.256 87.7413C130.134 87.0082 129.401 86.7638 128.79 86.886C128.668 87.3747 128.546 87.8635 128.301 88.4745C128.668 88.3523 128.912 88.2301 129.279 87.9857C129.279 88.3523 129.279 88.5966 129.401 88.841C129.523 88.841 129.523 88.9632 129.645 88.9632C129.89 88.5967 130.256 88.1079 130.256 87.7413Z" fill="#212E36"/>
<path d="M139.177 87.0081C138.932 86.886 138.81 86.6416 138.566 86.6416C138.321 86.6416 137.955 86.6416 137.832 86.886C137.588 87.1303 137.344 87.3747 137.099 87.7413C136.977 87.9857 136.977 88.2301 136.977 88.5966C137.221 88.4745 137.466 88.3523 137.588 88.3523C138.077 88.1079 138.566 87.8635 139.054 87.6191C139.054 87.3747 139.054 87.2525 139.177 87.0081Z" fill="#212E36"/>
<path d="M128.546 93.7287C128.668 94.2175 128.79 94.4619 128.912 94.7063C128.912 94.8284 129.279 94.8284 129.279 94.7063C129.401 94.4619 129.401 94.0953 129.401 93.8509C129.401 93.7287 129.401 93.7287 129.401 93.6065C129.401 93.3621 129.401 92.9956 129.401 92.7512C129.157 93.24 128.912 93.4843 128.546 93.7287Z" fill="#212E36"/>
<path d="M130.867 84.3199C130.99 84.5643 131.112 84.6865 131.356 84.9309C131.478 84.8087 131.601 84.6865 131.601 84.6865C131.601 83.8312 130.867 83.8312 130.379 83.4646C130.256 83.4646 130.012 83.709 129.768 83.9534C129.89 84.1977 130.134 84.4421 130.379 84.4421C130.379 84.6865 130.623 84.4421 130.867 84.3199Z" fill="#212E36"/>
<path d="M129.646 85.664C129.279 85.2975 129.035 84.9309 128.912 84.9309C128.668 84.9309 128.302 85.1753 128.057 85.4197C128.179 85.664 128.302 85.9084 128.546 86.0306C128.79 86.0306 129.035 85.7862 129.646 85.664Z" fill="#212E36"/>
<path d="M131.478 89.2076C131.845 88.841 132.212 88.7188 132.456 88.4745C132.578 88.3523 132.578 88.1079 132.578 87.8635C132.334 87.8635 132.089 87.7413 131.967 87.8635C131.723 87.9857 131.479 88.2301 131.112 88.5967C131.234 88.7188 131.356 88.9632 131.478 89.2076Z" fill="#212E36"/>
<path d="M134.778 84.5643C134.411 84.1977 134.289 83.9534 134.045 83.8312C133.922 83.8312 133.556 84.1977 133.556 84.3199C133.678 84.5643 133.922 84.8087 134.167 85.0531C134.045 85.0531 134.411 84.8087 134.778 84.5643Z" fill="#212E36"/>
<path d="M130.256 90.7961C129.523 90.6739 128.912 90.6739 128.179 90.5517C128.668 91.2849 129.401 91.4071 130.256 90.7961Z" fill="#212E36"/>
<path d="M132.089 93.7287C131.967 93.4843 131.845 93.1178 131.601 92.8734C131.356 92.9956 131.112 93.1178 130.99 93.3621C131.234 93.6065 131.478 93.8509 131.723 94.0953C131.845 93.9731 131.967 93.8509 132.089 93.7287Z" fill="#212E36"/>
<path d="M136.244 119.145L132.578 108.881C133.8 112.18 135.022 115.601 136.244 119.145Z" fill="black" stroke="white" stroke-width="0.5" stroke-linecap="round" stroke-linejoin="round"/>
<path fill-rule="evenodd" clip-rule="evenodd" d="M138.077 88.3523L131.112 92.629L118.648 97.0279C111.805 98.8608 116.326 110.958 135.022 98.983C135.022 98.983 136.61 99.2274 138.565 98.7386C140.276 98.2498 141.865 97.6389 142.475 97.2723C142.353 97.3945 141.376 97.7611 141.376 98.1276C141.254 98.7386 141.62 99.4717 141.62 99.4717L144.797 97.8832C145.042 97.3945 144.553 96.7835 144.553 96.7835C144.553 96.7835 145.286 96.1725 145.408 95.5616C145.652 94.9506 145.53 94.4619 145.53 94.4619C145.53 94.4619 146.386 92.629 146.141 92.1402C145.897 91.6515 141.009 90.6739 141.009 90.6739L145.53 90.7961C145.53 90.7961 147.363 91.8958 148.219 92.2624C149.074 92.629 150.174 91.5293 150.174 91.5293L146.63 88.841C146.63 88.841 143.942 88.3523 142.964 88.3523C142.842 88.3523 142.598 88.3523 142.353 88.3523" fill="white"/>
<path d="M138.077 88.3523L131.112 92.629L118.648 97.0279C111.805 98.8608 116.326 110.958 135.022 98.983C135.022 98.983 136.61 99.2274 138.565 98.7386C140.276 98.2498 141.865 97.6389 142.475 97.2723C142.353 97.3945 141.376 97.7611 141.376 98.1276C141.254 98.7386 141.62 99.4717 141.62 99.4717L144.797 97.8832C145.042 97.3945 144.553 96.7835 144.553 96.7835C144.553 96.7835 145.286 96.1725 145.408 95.5616C145.652 94.9506 145.53 94.4619 145.53 94.4619C145.53 94.4619 146.386 92.629 146.141 92.1402C145.897 91.6515 141.009 90.6739 141.009 90.6739L145.53 90.7961C145.53 90.7961 147.363 91.8958 148.219 92.2624C149.074 92.629 150.174 91.5293 150.174 91.5293L146.63 88.841C146.63 88.841 143.942 88.3523 142.964 88.3523C142.842 88.3523 142.598 88.3523 142.353 88.3523" stroke="#212E36" stroke-width="0.5" stroke-linecap="round" stroke-linejoin="round"/>
<path d="M138.077 88.3523L140.52 86.6416L143.942 84.5643C143.942 84.5643 144.553 85.2975 143.942 86.0306C143.331 86.7638 142.476 87.4969 142.476 87.4969L142.109 88.2301" fill="white"/>
<path d="M138.077 88.3523L140.52 86.6416L143.942 84.5643C143.942 84.5643 144.553 85.2975 143.942 86.0306C143.331 86.7638 142.476 87.4969 142.476 87.4969L142.109 88.2301" stroke="#212E36" stroke-width="0.5" stroke-linecap="round" stroke-linejoin="round"/>
<path d="M142.353 88.1079L140.276 88.2301" stroke="#212E36" stroke-width="0.5" stroke-linecap="round" stroke-linejoin="round"/>
<path d="M139.787 92.5068C139.787 92.5068 143.575 92.9956 144.064 93.2399C144.553 93.4843 145.408 94.2175 145.408 94.2175" fill="white"/>
<path d="M139.787 92.5068C139.787 92.5068 143.575 92.9956 144.064 93.2399C144.553 93.4843 145.408 94.2175 145.408 94.2175" stroke="#212E36" stroke-width="0.5" stroke-linecap="round" stroke-linejoin="round"/>
<path d="M139.299 94.5841C139.299 94.5841 142.842 94.8284 143.209 95.195C143.575 95.5616 144.431 96.5391 144.431 96.5391" fill="white"/>
<path d="M139.299 94.5841C139.299 94.5841 142.842 94.8284 143.209 95.195C143.575 95.5616 144.431 96.5391 144.431 96.5391" stroke="#212E36" stroke-width="0.5" stroke-linecap="round" stroke-linejoin="round"/>
<path d="M89.6888 72.5895C82.3573 86.5194 95.1874 109.003 96.8981 111.813C100.93 112.546 107.651 113.035 115.716 111.324C123.292 109.614 129.035 106.437 132.334 104.115C130.257 100.205 128.057 96.1725 125.98 92.2624C119.381 94.4619 112.905 96.6613 106.307 98.8608C103.985 93.4843 101.664 88.2301 99.3419 82.8536" fill="#EA7303"/>
<path d="M134.289 145.782C134.9 145.66 135.633 146.271 135.755 145.172C135.633 145.049 135.389 144.683 135.144 144.561C135.022 144.438 134.655 144.438 134.655 144.438C134.289 144.927 133.433 145.294 133.556 146.149C133.556 146.393 133.8 146.638 133.922 146.882C134.044 146.638 134.289 146.393 134.411 146.149C134.411 146.027 134.289 145.905 134.289 145.782Z" fill="white"/>
<path d="M136.855 149.815C136.488 149.326 136.366 149.082 136 148.593C136.366 148.593 136.61 148.593 136.733 148.593C136.977 148.471 137.221 148.226 137.221 147.982C137.221 147.86 136.855 147.493 136.733 147.493C136.244 147.738 135.389 147.982 135.266 148.471C135.022 149.326 135.633 149.815 136.855 149.815Z" fill="white"/>
<path d="M140.521 149.082C140.398 148.593 140.276 148.104 140.154 148.104C139.91 147.982 139.543 148.104 139.176 148.226C139.176 148.471 139.176 148.837 139.299 148.959C139.543 148.959 139.91 148.959 140.521 149.082Z" fill="white"/>
<path d="M138.321 146.393C138.199 145.905 138.077 145.416 137.955 145.416C137.71 145.294 137.344 145.416 136.977 145.538C136.977 145.782 136.977 146.149 137.099 146.271C137.344 146.271 137.71 146.271 138.321 146.393Z" fill="white"/>
<path d="M144.186 160.812C144.431 161.179 144.553 161.667 144.797 162.034C144.92 161.912 145.286 161.79 145.286 161.79C145.164 161.423 144.92 160.934 144.675 160.568C144.553 160.568 144.309 160.69 144.186 160.812Z" fill="white"/>
<path d="M143.942 157.269C144.553 157.391 145.042 157.635 145.653 157.757C145.408 156.535 145.042 156.413 143.942 157.269Z" fill="white"/>
<path d="M140.765 146.393C140.276 146.149 139.91 145.905 139.176 145.66C139.421 146.149 139.543 146.516 139.665 146.638C140.032 146.76 140.398 146.638 140.887 146.76C140.765 146.638 140.765 146.516 140.765 146.393Z" fill="white"/>
<path d="M143.453 153.847C143.209 154.458 143.087 155.069 142.842 155.802C143.209 155.68 143.453 155.558 143.575 155.558C143.942 155.802 144.186 155.924 144.431 156.047C144.553 155.802 144.797 155.558 144.797 155.313C144.675 154.458 144.064 154.214 143.453 153.847Z" fill="white"/>
<path d="M140.032 156.169C140.398 156.169 140.765 156.291 141.131 156.291C141.009 156.535 140.887 156.78 140.643 157.024C140.765 157.146 140.765 157.146 140.765 157.269C141.131 157.024 141.742 156.902 141.865 156.535C142.109 155.924 141.742 155.191 141.131 154.947C140.887 155.436 140.521 155.68 140.032 156.169Z" fill="white"/>
<path d="M141.62 149.204C141.987 149.204 142.353 149.326 142.72 149.326C142.598 149.57 142.476 149.815 142.231 150.059C142.353 150.181 142.353 150.181 142.353 150.304C142.72 150.059 143.331 149.937 143.453 149.57C143.698 148.959 143.331 148.226 142.72 147.982C142.476 148.349 142.109 148.715 141.62 149.204Z" fill="white"/>
<path d="M145.164 159.224C145.042 158.979 145.042 158.735 144.919 158.613C144.675 158.49 144.431 158.368 144.186 158.368C143.82 158.368 143.453 158.49 143.087 158.735C142.842 158.857 142.72 159.101 142.598 159.346C142.842 159.346 143.087 159.468 143.331 159.468C143.82 159.59 144.431 159.59 144.919 159.59C145.042 159.468 145.164 159.346 145.164 159.224Z" fill="white"/>
<path d="M140.887 158.979C140.765 159.468 140.643 159.712 140.643 160.079C140.643 160.201 140.887 160.323 141.009 160.323C141.254 160.201 141.376 159.957 141.62 159.712C141.62 159.712 141.62 159.59 141.743 159.59C141.865 159.346 142.109 159.101 142.231 158.857C141.743 158.857 141.254 158.979 140.887 158.979Z" fill="white"/>
<path d="M141.254 151.037C141.254 151.281 141.254 151.525 141.254 151.77C141.376 151.648 141.498 151.648 141.62 151.648C142.109 150.915 141.498 150.548 141.254 149.937C141.254 149.815 140.765 149.937 140.521 150.059C140.521 150.304 140.521 150.67 140.643 150.792C140.765 151.037 141.009 151.037 141.254 151.037Z" fill="white"/>
<path d="M139.543 151.403C139.421 150.915 139.421 150.426 139.299 150.426C139.054 150.304 138.688 150.304 138.321 150.304C138.321 150.548 138.199 150.915 138.321 151.037C138.566 151.281 138.932 151.281 139.543 151.403Z" fill="white"/>
<path d="M141.498 153.114C141.987 153.114 142.354 153.114 142.72 152.992C142.842 152.992 142.964 152.747 143.209 152.625C143.087 152.503 142.842 152.259 142.72 152.259C142.354 152.259 141.987 152.381 141.62 152.381C141.62 152.625 141.62 152.87 141.498 153.114Z" fill="white"/>
<path d="M144.431 153.358C144.309 152.87 144.309 152.503 144.186 152.259C144.186 152.136 143.453 152.259 143.453 152.381C143.331 152.625 143.453 152.992 143.575 153.358C143.575 153.358 143.942 153.358 144.431 153.358Z" fill="white"/>
<path d="M139.054 149.448C138.566 148.959 137.955 148.593 137.344 148.104C137.466 148.837 138.077 149.448 139.054 149.448Z" fill="white"/>
<path d="M143.331 162.401C143.331 162.034 143.453 161.667 143.453 161.423C143.209 161.423 142.964 161.423 142.72 161.423C142.842 161.79 142.842 162.156 142.964 162.401C142.964 162.523 143.087 162.523 143.331 162.401Z" fill="white"/>
<path d="M156.039 182.318C161.049 185.495 163.859 186.595 165.57 186.839C166.059 186.961 167.892 187.083 168.991 188.55C169.847 189.649 169.847 190.994 169.725 191.971C161.293 191.971 152.862 191.971 144.553 191.971C144.675 190.383 144.675 188.794 144.797 187.206C145.408 185.861 145.897 184.395 146.508 183.051L146.753 182.562C148.341 181.463 149.93 180.485 151.64 179.507C153.351 180.485 154.817 181.463 156.039 182.318Z" fill="#EA7306"/>
<path d="M145.897 191.36V194.781L145.286 194.904C145.286 194.904 144.553 193.315 141.987 193.315C139.543 193.315 138.688 194.904 138.688 194.904L132.212 195.026L132.089 192.826L132.578 191.482L145.897 191.36Z" fill="white" stroke="#212E36" stroke-width="0.5" stroke-linecap="round" stroke-linejoin="round"/>
<path d="M152.007 179.507C153.106 176.941 148.707 176.208 147.119 176.941C144.309 178.286 143.942 179.263 141.987 179.996C140.887 180.485 134.289 179.507 131.356 177.797V183.173C131.356 183.173 140.398 185.373 142.964 185.617C145.408 184.273 149.685 181.096 152.007 179.507Z" fill="white" stroke="#212E36" stroke-width="0.5" stroke-linecap="round" stroke-linejoin="round"/>
<path d="M131.356 182.073L142.965 184.64L130.501 191.971L131.356 182.073Z" fill="#212E36" stroke="#212E36" stroke-width="0.5" stroke-linecap="round" stroke-linejoin="round"/>
<path d="M130.501 191.971L142.965 184.64L146.752 181.707L156.406 187.817L145.897 187.939V191.36L132.578 191.604L130.501 191.971Z" fill="#F8AD4D"/>
<path d="M169.725 190.994L169.969 191.238L170.702 194.415L146.019 194.781L145.897 191.36L169.725 190.994Z" fill="white" stroke="#212E36" stroke-width="0.5" stroke-linecap="round" stroke-linejoin="round"/>
<path d="M156.406 192.949C156.406 191.971 157.139 191.116 158.116 191.116L168.991 190.994C169.969 190.994 170.824 191.727 170.824 192.704V194.415L156.283 194.659L156.406 192.949Z" fill="white" stroke="#212E36" stroke-width="0.5" stroke-linecap="round" stroke-linejoin="round"/>
<path d="M129.157 193.315C129.157 192.338 129.89 191.482 130.867 191.482L136.733 191.36C137.71 191.36 138.566 192.093 138.566 193.071V194.781L129.035 194.904L129.157 193.315Z" fill="white" stroke="#212E36" stroke-width="0.5" stroke-linecap="round" stroke-linejoin="round"/>
<path d="M145.286 193.071C145.286 192.093 146.019 191.238 146.997 191.238L152.862 191.116C153.84 191.116 154.695 191.849 154.695 192.826V194.537L145.286 194.659V193.071Z" fill="white" stroke="#212E36" stroke-width="0.5" stroke-linecap="round" stroke-linejoin="round"/>
<path d="M153.717 179.996L150.052 182.562" stroke="#212E36" stroke-width="0.5" stroke-linecap="round" stroke-linejoin="round"/>
<path d="M155.672 181.34L152.007 183.906" stroke="#212E36" stroke-width="0.5" stroke-linecap="round" stroke-linejoin="round"/>
<path d="M157.627 182.562L153.962 185.128" stroke="#212E36" stroke-width="0.5" stroke-linecap="round" stroke-linejoin="round"/>
<path d="M190.986 68.435L195.507 69.6569" stroke="#212E36" stroke-width="0.5" stroke-linecap="round" stroke-linejoin="round"/>
<path d="M195.629 54.6273L199.295 57.5599" stroke="#212E36" stroke-width="0.5" stroke-linecap="round" stroke-linejoin="round"/>
<path d="M211.88 44.8519V54.2607" stroke="#212E36" stroke-width="0.5" stroke-linecap="round" stroke-linejoin="round"/>
<path d="M228.499 54.9939L223.611 58.7818" stroke="#212E36" stroke-width="0.5" stroke-linecap="round" stroke-linejoin="round"/>
<path d="M233.02 69.4125L226.91 70.5122" stroke="#212E36" stroke-width="0.5" stroke-linecap="round" stroke-linejoin="round"/>
<path d="M134.167 34.099L163.37 30.6777C165.936 30.4333 168.136 32.144 168.38 34.71L169.969 48.5177C170.213 51.0837 168.502 53.2832 165.936 53.5276L136.733 56.9489C134.167 57.1933 131.967 55.4826 131.723 52.9166L130.134 39.1089C129.89 36.6651 131.723 34.4656 134.167 34.099Z" fill="#D8E9F9"/>
<path d="M137.914 43.5852C137.934 43.3679 138.001 43.1848 138.113 43.036C138.232 42.8865 138.389 42.8005 138.584 42.7779C138.769 42.7566 138.916 42.7848 139.027 42.8625C139.138 42.9402 139.264 43.053 139.405 43.2007L140.023 43.8422L140.778 42.5243C141.085 42.4889 141.335 42.5166 141.526 42.6076C141.717 42.6931 141.823 42.8279 141.845 43.0121C141.853 43.0847 141.85 43.153 141.834 43.217C141.824 43.2748 141.803 43.3366 141.771 43.4025C141.739 43.4685 141.697 43.544 141.644 43.6293C141.592 43.7146 141.53 43.8151 141.459 43.9308L140.978 44.6144L142.242 45.9364C142.239 46.1518 142.174 46.3289 142.049 46.4679C141.923 46.6068 141.763 46.6876 141.568 46.7102C141.355 46.7291 141.177 46.6874 141.036 46.585C140.899 46.4819 140.763 46.3534 140.626 46.1995L140.099 45.6069L139.387 46.9367C139.359 46.9399 139.329 46.9434 139.295 46.9473C139.262 46.9568 139.235 46.9628 139.213 46.9654C138.928 46.9983 138.703 46.9648 138.539 46.865C138.38 46.7645 138.291 46.6278 138.271 46.4547C138.255 46.3207 138.273 46.1999 138.322 46.0923C138.377 45.9785 138.472 45.8232 138.608 45.6265L139.188 44.7703L137.914 43.5852ZM142.566 43.7179C142.52 43.661 142.477 43.584 142.438 43.4867C142.404 43.3888 142.381 43.2896 142.369 43.1891C142.346 42.9881 142.374 42.8378 142.453 42.7381C142.532 42.6329 142.646 42.5716 142.797 42.5542L145.728 42.2154C145.763 42.2792 145.801 42.3597 145.841 42.457C145.885 42.548 145.913 42.6466 145.926 42.7527C145.948 42.9481 145.92 43.0984 145.842 43.2036C145.763 43.3033 145.651 43.3615 145.506 43.3783L142.566 43.7179ZM142.759 45.3844C142.713 45.3275 142.67 45.2505 142.63 45.1532C142.596 45.0553 142.574 44.9561 142.562 44.8556C142.539 44.6546 142.567 44.5043 142.646 44.4046C142.724 44.2994 142.839 44.2381 142.989 44.2207L145.92 43.8819C145.956 43.9457 145.994 44.0262 146.033 44.1235C146.078 44.2145 146.106 44.3131 146.118 44.4192C146.141 44.6146 146.113 44.7649 146.035 44.8701C145.956 44.9698 145.844 45.028 145.698 45.0448L142.759 45.3844Z" fill="#212E36"/>
<path d="M149.685 44.2409L151.151 42.5303L154.084 46.807L153.595 39.2311L163.004 38.1313" stroke="#212E36" stroke-linecap="round" stroke-linejoin="round"/>
<path fill-rule="evenodd" clip-rule="evenodd" d="M226.177 143.827L226.666 144.194H227.155V143.339L228.499 143.216L229.843 144.194H230.943C230.698 143.461 230.454 142.606 230.21 141.872H229.965L229.232 141.139L229.11 139.917L228.377 140.284L228.01 141.872L226.91 140.773V139.673L225.811 138.818L225.444 138.451H224.222L224.589 139.551L226.055 140.406L226.299 140.65L225.933 140.773V141.628L225.2 141.872L224.589 141.75L224.222 141.261H225.2L225.444 140.895L223.245 139.429L223.122 138.818L222.267 139.551L221.412 139.429L220.19 141.139L219.945 141.872L219.09 141.995H217.868L217.135 141.628L216.891 140.162L217.135 139.429L218.479 139.184L219.823 139.429L219.945 138.695L219.334 138.573L219.579 137.351L221.045 137.107L222.023 135.641L223 135.518L223.978 135.641H224.344L224.222 134.296L223.122 134.785L222.756 133.808L222.145 133.685L222.023 132.952L222.511 132.341L223.367 131.975C218.601 127.698 212.37 125.01 205.405 125.01C199.906 125.01 194.774 126.721 190.497 129.531H191.23L191.841 129.898L193.063 130.142L193.185 130.631L195.018 130.753L194.774 130.142H193.185L193.552 129.775L193.43 129.287H191.963L193.552 128.065H195.14L195.874 129.042L197.096 129.164L197.829 128.431L198.317 128.676L197.34 129.653H195.996L196.118 130.631H197.829L197.951 130.142L199.051 130.02L199.173 129.287L198.44 129.164L198.684 128.553L199.173 128.431L201.006 128.553L200.028 129.531L200.15 130.264L201.25 130.386L201.128 129.042L202.105 128.553L203.816 128.309L206.382 129.409V130.386L207.237 130.631L206.871 131.364H205.771L205.405 132.219L202.716 131.608L204.794 130.508L203.938 129.775L202.105 130.02L201.983 130.142L201.494 130.631L200.639 130.753L200.761 131.119L201.006 131.242V131.364L200.273 131.486L200.15 131.853H199.539L199.417 130.997L198.195 131.364L195.751 132.83L195.996 133.808L196.729 134.296L198.073 134.541V136.129L198.684 136.007L199.295 134.785L200.761 134.296V132.464L201.617 131.853L203.572 132.341L203.45 133.563H203.938L205.405 132.83L205.527 134.419L206.626 135.03V136.007L205.649 136.374L205.771 136.74L206.993 137.229V137.84H206.626L205.16 137.351L205.038 136.862L205.527 136.496V136.007L205.038 135.885L204.916 136.252L204.06 136.374H203.938H203.694L203.45 135.885L203.205 135.763H202.594L202.35 136.007V136.496L202.839 136.618L203.327 136.74L203.205 136.862L202.716 137.351L202.472 137.107L201.983 136.985L200.761 138.084L200.883 138.207L199.051 139.184L197.34 140.895L197.218 141.628L195.507 142.728L194.652 143.583L194.774 145.294L193.552 144.805V143.827H190.375L188.664 144.683L187.931 146.027L187.687 147.127L188.176 148.226L189.52 148.349L191.597 147.004L191.719 147.738L191.108 148.959L192.697 149.204L192.819 151.648L195.018 152.014L196.362 150.426L198.073 150.792L198.684 151.648L200.273 151.526V151.037L201.128 151.526L202.105 153.114H203.816L204.427 154.214L204.549 155.558L206.504 156.291H208.948L209.681 157.391L210.781 157.757L210.537 158.735L209.315 160.201L208.948 163.5L207.848 164.356H206.26L205.771 165.211L206.138 166.922L204.427 169.121L203.938 170.099L202.35 170.832L201.25 170.954V171.443L201.983 171.687L201.861 172.176L201.128 172.787L201.494 173.276H202.35V173.887L202.105 174.498L201.983 174.986L203.205 175.964L203.083 176.453H201.494L199.906 174.986L198.684 172.787L198.806 170.587L197.829 169.243L198.195 167.044L197.584 166.922V163.134C197.584 163.134 195.996 161.912 195.874 161.912C195.751 161.912 195.018 161.667 195.018 161.667L194.896 160.812L192.819 158.246L193.063 157.269L193.185 155.802L194.652 154.825L194.407 153.114L192.33 152.992L190.619 151.159L189.52 150.792L188.786 150.67L188.909 149.937L187.931 149.815V150.181L185.487 149.57L184.51 148.104L184.876 147.371L183.41 145.172L183.166 143.583H182.555L182.799 145.172L183.899 146.76L183.777 147.371L182.921 147.249L181.822 145.416V143.216L180.722 142.728V141.628C179.378 144.805 178.645 148.226 178.645 151.892C178.645 166.677 190.619 178.652 205.405 178.652C213.836 178.652 221.412 174.742 226.299 168.51V167.288L225.2 165.944V163.745L224.467 162.889L224.344 162.034L225.322 160.079L223.367 156.658L223.611 154.336L221.9 154.214L221.29 153.603H220.19L219.579 154.092H217.502L217.379 154.214H216.28L213.714 151.281V148.959L214.202 148.837L214.325 147.982H213.714L213.469 147.004L216.524 144.805V143.216L217.99 142.361L218.601 142.483H219.823L220.801 141.995L223.856 141.75V143.339L226.177 143.827ZM218.479 134.052L218.723 133.685L219.579 133.441L219.823 134.541L220.312 135.274L220.679 135.641L221.29 135.885L220.801 136.496L219.701 136.618H218.846L218.968 135.641L219.579 135.518L219.457 135.03L218.846 134.663L218.357 134.419L218.479 134.052ZM217.013 135.763L217.624 134.907L218.357 134.785L218.846 135.03L218.723 135.641L217.624 136.496H217.013V135.763ZM202.105 139.184H201.494V138.818L201.739 138.451L202.105 138.695V139.184ZM204.06 138.451H203.694L203.572 138.818L203.327 138.94H202.839C202.839 138.818 202.839 138.695 202.839 138.695H202.716V138.329H203.45L203.572 137.962H203.938L204.305 138.084L204.06 138.451Z" fill="#D8E9F9"/>
<path d="M205.282 117.678C224.1 117.678 239.374 132.952 239.374 151.77C239.374 167.777 228.254 181.34 213.225 184.884" stroke="#212E36" stroke-width="0.5" stroke-linecap="round" stroke-linejoin="round"/>
<path d="M205.282 125.01C190.497 125.01 178.522 136.985 178.522 151.77" stroke="#212E36" stroke-width="0.5" stroke-linecap="round" stroke-linejoin="round"/>
<path d="M205.282 178.53C220.068 178.53 232.042 166.555 232.042 151.77" stroke="#212E36" stroke-width="0.5" stroke-linecap="round" stroke-linejoin="round"/>
<path d="M211.025 125.621C209.193 125.254 207.237 125.01 205.282 125.01C190.497 125.01 178.522 136.985 178.522 151.77" stroke="#212E36" stroke-width="0.5" stroke-linecap="round" stroke-linejoin="round"/>
<path d="M201.25 178.163L205.405 178.53C220.19 178.53 232.165 166.555 232.165 151.77C232.165 147.493 231.187 143.339 229.354 139.795" stroke="#212E36" stroke-width="0.5" stroke-linecap="round" stroke-linejoin="round"/>
<path fill-rule="evenodd" clip-rule="evenodd" d="M209.437 182.929C213.836 179.63 216.646 180.485 218.479 181.951C221.289 184.151 221.778 189.772 218.846 193.437C218.357 194.048 217.868 194.537 217.257 194.904C216.646 195.27 207.237 195.515 206.015 195.026C205.649 194.904 205.404 194.537 205.038 194.293C201.25 190.871 200.15 185.373 203.327 182.44C205.038 180.729 207.726 181.218 209.437 182.929Z" fill="#EA7306"/>
<path fill-rule="evenodd" clip-rule="evenodd" d="M209.192 184.151C209.07 183.784 207.604 179.996 209.681 176.819C210.414 175.72 211.514 174.986 212.247 174.62C212.736 174.986 213.225 175.231 213.714 175.597C212.98 176.086 211.392 177.43 210.292 179.63C209.315 181.463 209.192 183.173 209.192 184.151Z" fill="#212E36"/>
<path fill-rule="evenodd" clip-rule="evenodd" d="M209.681 178.774C209.192 178.774 206.015 178.53 204.06 175.72C202.35 173.398 202.227 170.221 203.572 167.533C204.06 167.655 207.237 168.632 209.07 171.932C210.659 175.231 209.803 178.286 209.681 178.774Z" fill="#212E36"/>
<path d="M188.664 108.636C188.175 108.636 187.809 109.125 187.931 109.614C188.909 112.424 190.986 119.878 186.953 125.743C186.587 126.354 186.098 126.965 185.365 127.576C184.876 127.942 185.121 128.798 185.732 128.798C190.986 129.409 196.362 129.898 201.617 130.509C201.861 130.509 202.227 130.386 202.35 130.142C203.083 128.798 203.938 127.209 204.549 125.254C206.749 118.9 206.015 113.157 205.282 109.858C205.16 109.491 204.916 109.369 204.549 109.247C199.295 109.125 194.041 108.881 188.664 108.636Z" fill="#212E36"/>
<path d="M184.876 105.581C184.388 105.581 184.021 106.07 184.143 106.559C185.121 109.369 187.198 116.823 183.166 122.688C182.799 123.299 182.31 123.91 181.577 124.521C181.088 124.888 181.333 125.743 181.944 125.743C187.198 126.354 192.574 126.843 197.829 127.454C198.073 127.454 198.44 127.331 198.562 127.087C199.295 125.743 200.15 124.155 200.761 122.199C202.961 115.845 202.228 110.102 201.494 106.803C201.372 106.437 201.128 106.314 200.761 106.192C195.629 106.07 190.253 105.826 184.876 105.581Z" fill="#F8AD4D"/>
<path d="M189.153 111.202C191.719 111.202 195.385 111.569 197.951 111.569Z" fill="white"/>
<path d="M189.153 111.202C191.719 111.202 195.385 111.569 197.951 111.569" stroke="#212E36" stroke-width="0.5" stroke-linecap="round" stroke-linejoin="round"/>
<path d="M189.153 114.746C191.719 114.746 195.385 115.112 197.951 115.112Z" fill="white"/>
<path d="M189.153 114.746C191.719 114.746 195.385 115.112 197.951 115.112" stroke="#212E36" stroke-width="0.5" stroke-linecap="round" stroke-linejoin="round"/>
<path d="M188.909 118.289C191.475 118.289 195.14 118.656 197.706 118.656Z" fill="white"/>
<path d="M188.909 118.289C191.475 118.289 195.14 118.656 197.706 118.656" stroke="#212E36" stroke-width="0.5" stroke-linecap="round" stroke-linejoin="round"/>
<path d="M101.297 106.559L104.718 105.826L104.841 109.247L107.895 110.958L105.696 113.646L107.04 116.945L103.619 117.556L102.519 120.978L99.4642 119.267L96.4094 121.1L95.1875 117.801L91.6439 117.434L92.8658 114.013L90.422 111.447L93.4768 109.614L93.3546 106.07L96.776 106.681L98.9754 103.871L101.297 106.559Z" stroke="#F8AD4D" stroke-width="0.5" stroke-linecap="round" stroke-linejoin="round"/>
<path d="M206.016 187.939L207.971 187.45V189.527L209.804 190.505L208.459 192.093L209.315 193.926L207.238 194.293L206.627 196.248L204.916 195.27L203.205 196.37L202.35 194.537L200.395 194.17L201.006 192.338L199.662 190.749L201.372 189.772V187.694L203.327 187.939L204.549 186.35L206.016 187.939Z" stroke="#F8AD4D" stroke-width="0.5" stroke-linecap="round" stroke-linejoin="round"/>
<path d="M99.3418 82.8536L106.185 98.8608L125.246 92.5068" stroke="#212E36" stroke-width="0.5" stroke-linecap="round" stroke-linejoin="round"/>
<path d="M120.603 94.0953L128.057 105.826" stroke="#212E36" stroke-width="0.5" stroke-linecap="round" stroke-linejoin="round"/>
<path d="M183.41 77.355L180.966 89.9408" stroke="#212E36" stroke-width="0.5" stroke-linecap="round" stroke-linejoin="round"/>
<path d="M202.716 195.026H225.444" stroke="#212E36" stroke-width="0.5" stroke-linecap="round" stroke-linejoin="round"/>
<path d="M221.534 146.149C221.901 146.638 221.656 147.615 222.634 147.249C222.756 147.004 222.878 146.76 222.878 146.393C222.878 146.271 222.878 145.905 222.756 145.905C222.023 145.782 221.534 145.049 220.801 145.538C220.556 145.66 220.434 145.905 220.312 146.149C220.556 146.149 220.923 146.271 221.167 146.271C221.167 146.393 221.29 146.271 221.534 146.149Z" fill="#212E36"/>
<path d="M229.354 147.371C229.599 146.882 229.843 146.516 230.087 146.027C230.21 146.271 230.332 146.638 230.454 146.76C230.698 146.882 230.943 147.004 231.187 147.004C231.309 147.004 231.554 146.393 231.432 146.393C230.943 146.027 230.454 145.416 229.965 145.416C229.11 145.416 228.866 146.271 229.354 147.371Z" fill="#212E36"/>
<path d="M231.554 150.304C231.92 149.937 232.287 149.693 232.287 149.57C232.287 149.326 232.042 148.959 231.798 148.715C231.554 148.837 231.309 148.959 231.187 149.204C231.187 149.448 231.432 149.815 231.554 150.304Z" fill="#212E36"/>
<path d="M213.836 143.705C213.592 144.072 213.225 144.438 212.981 144.805C213.103 144.927 213.469 145.172 213.469 145.172C213.714 144.805 214.08 144.438 214.325 144.072C214.202 143.95 213.958 143.827 213.836 143.705Z" fill="#212E36"/>
<path d="M217.99 144.072C217.38 144.438 217.013 144.683 216.524 145.049C217.624 145.66 217.99 145.416 217.99 144.072Z" fill="#212E36"/>
<path d="M225.933 147.127C225.933 146.638 225.933 146.149 225.933 145.294C225.566 145.66 225.2 145.905 225.2 146.149C225.2 146.516 225.444 146.882 225.688 147.249C225.811 147.249 225.811 147.127 225.933 147.127Z" fill="#212E36"/>
<path d="M228.377 155.069C227.644 155.191 227.155 155.191 226.422 155.313C226.666 155.558 226.911 155.802 226.911 155.802C226.911 156.169 226.911 156.535 226.788 156.902C227.033 156.902 227.399 157.024 227.521 156.902C228.377 156.413 228.377 155.68 228.377 155.069Z" fill="#212E36"/>
<path d="M222.511 152.992C222.634 153.358 222.756 153.603 222.878 154.092C222.511 154.092 222.267 154.092 222.023 153.969C222.023 154.092 221.901 154.092 221.901 154.214C222.267 154.458 222.634 154.947 223 154.947C223.733 154.947 224.1 154.336 224.1 153.603C223.489 153.481 223.122 153.236 222.511 152.992Z" fill="#212E36"/>
<path d="M226.91 150.67C227.643 150.67 228.01 150.059 228.01 149.326C227.521 149.082 227.032 148.959 226.544 148.715C226.666 149.082 226.788 149.326 226.91 149.815C226.544 149.815 226.299 149.815 226.055 149.693C226.055 149.815 225.933 149.815 225.933 149.937C226.055 150.304 226.422 150.67 226.91 150.67Z" fill="#212E36"/>
<path d="M226.177 159.59C226.299 159.468 226.544 159.224 226.544 159.101C226.666 158.857 226.544 158.49 226.422 158.368C226.299 158.002 225.933 157.757 225.688 157.513C225.444 157.391 225.2 157.391 224.955 157.269C225.078 157.513 225.078 157.757 225.2 158.002C225.322 158.49 225.566 159.101 225.688 159.59C225.811 159.59 225.933 159.59 226.177 159.59Z" fill="#212E36"/>
<path d="M221.167 148.104C220.679 148.226 220.434 148.226 220.068 148.348C219.945 148.348 219.945 148.715 219.945 148.715C220.19 148.837 220.434 148.959 220.801 148.959C220.923 148.959 220.923 148.959 220.923 148.959C221.167 148.959 221.534 149.082 221.778 149.082C221.534 148.837 221.412 148.471 221.167 148.104Z" fill="#212E36"/>
<path d="M230.087 151.892C229.843 152.014 229.599 152.136 229.354 152.259C229.476 152.381 229.476 152.503 229.599 152.503C230.454 152.625 230.576 151.892 230.943 151.403C231.065 151.281 230.698 150.915 230.576 150.67C230.332 150.792 230.087 150.915 229.965 151.159C229.965 151.403 230.087 151.648 230.087 151.892Z" fill="#212E36"/>
<path d="M228.988 150.426C229.476 150.181 229.843 149.937 229.843 149.815C229.843 149.57 229.599 149.204 229.599 148.959C229.354 149.082 228.988 149.082 228.988 149.326C228.865 149.57 228.988 149.815 228.988 150.426Z" fill="#212E36"/>
<path d="M225.2 151.648C225.444 152.136 225.566 152.503 225.811 152.747C225.933 152.87 226.177 152.87 226.299 152.992C226.299 152.747 226.544 152.503 226.422 152.381C226.299 152.136 226.055 151.77 225.811 151.403C225.811 151.525 225.566 151.648 225.2 151.648Z" fill="#212E36"/>
<path d="M229.232 155.68C229.599 155.436 229.965 155.191 230.087 155.069C230.087 154.947 229.843 154.458 229.721 154.458C229.476 154.58 229.11 154.702 228.865 154.947C228.865 154.947 229.11 155.313 229.232 155.68Z" fill="#212E36"/>
<path d="M223.856 150.304C223.978 149.57 224.222 148.959 224.344 148.226C223.611 148.593 223.367 149.326 223.856 150.304Z" fill="#212E36"/>
<path d="M220.556 151.648C220.923 151.526 221.167 151.403 221.534 151.281C221.412 151.037 221.29 150.792 221.167 150.548C220.923 150.792 220.679 150.915 220.312 151.159C220.434 151.403 220.556 151.526 220.556 151.648Z" fill="#212E36"/>
<path d="M144.659 26.6453C144.659 26.6453 149.304 15.6121 144.543 8.29539C140.246 1.67548 130.025 -2.50552 123.986 1.67547C120.734 3.99825 118.295 8.99222 119.805 12.0118C122.012 16.309 129.793 15.3798 138.387 20.49C143.73 23.6257 144.659 26.6453 144.659 26.6453Z" fill="#3F89FA"/>
<path d="M141.523 11.4311L126.425 5.27579" stroke="white" stroke-width="0.5" stroke-linecap="round" stroke-linejoin="round"/>
<path d="M133.742 12.5925L125.264 9.22449" stroke="white" stroke-width="0.5" stroke-linecap="round" stroke-linejoin="round"/>
<g opacity="0.2">
<path d="M111.073 76.6218C111.317 76.8662 111.439 77.1106 111.806 77.4772C111.928 76.8662 111.195 76.4996 111.684 76.0109C111.806 76.2553 111.928 76.6218 112.05 76.8662C112.05 76.9884 112.05 77.2328 112.05 77.355C111.684 78.0882 111.317 78.9435 110.95 79.6766C110.706 80.1654 110.462 80.7764 110.095 81.1429C109.606 81.8761 109.728 82.6092 109.484 83.3424C109.484 83.4646 109.484 83.709 109.362 83.709C108.629 84.1977 108.995 84.9309 109.24 85.5419C109.118 85.5419 108.873 85.664 108.873 85.664C108.751 85.9084 108.629 86.275 108.629 86.5194C108.629 87.1304 108.507 87.7413 108.629 88.3523C108.629 89.0854 108.751 89.8186 108.751 90.5517V90.6739C109.118 90.7961 108.873 91.1627 108.873 91.4071C109.24 92.1402 108.873 92.8734 109.118 93.4843C109.24 93.7287 108.873 93.9731 108.751 94.2175C108.751 94.3397 108.751 94.4619 108.873 94.5841C108.751 94.7063 108.629 94.8284 108.384 95.0728C107.529 94.0953 108.018 92.9956 107.896 92.018C108.018 92.018 108.018 92.018 108.14 92.018C108.018 91.8958 108.018 91.8958 108.018 91.7736C107.773 91.2849 107.773 90.9183 108.018 90.4295C108.14 90.1852 108.14 89.9408 108.14 89.6964C108.14 89.2076 107.896 88.7188 107.896 88.1079C107.896 87.3747 107.529 86.6416 107.407 85.9084C107.162 84.3199 107.285 82.7314 107.896 81.2651C108.384 80.0432 109.118 78.8213 109.973 77.7216C110.217 77.4772 110.584 77.1106 111.073 76.6218Z" fill="#3F89FA"/>
<path d="M77.8363 83.3424C77.5919 83.098 77.4697 82.9758 77.4697 82.9758C77.4697 82.6093 77.4697 82.2427 77.4697 81.9983C77.5919 81.3873 77.5919 80.6542 77.7141 80.0432C77.7141 79.6766 77.8363 79.4323 77.8363 79.0657C77.9585 78.4547 77.5919 77.5994 78.6916 77.4772C78.8138 77.4772 78.936 77.2328 79.0582 77.2328C78.8138 77.7216 78.5695 78.2103 78.936 78.8213C79.0582 78.9435 78.8138 79.1879 78.6916 79.3101C78.6916 79.4323 78.5695 79.4323 78.4473 79.4323C78.5695 79.4323 78.6917 79.4323 78.936 79.5545C78.8138 79.7988 78.6916 80.1654 78.6916 80.4098C78.8138 81.2651 78.5695 81.9983 78.5695 82.8536C78.5695 82.9758 78.8138 83.4646 78.3251 83.3424L78.4473 84.0756H78.6916C78.5695 84.1978 78.4473 84.3199 78.4473 84.4421L78.5695 85.0531C78.4473 85.0531 78.3251 85.0531 77.8363 85.0531C78.2029 85.4197 78.4473 85.6641 78.6916 85.9084C78.8138 86.1528 79.3026 86.275 79.0582 86.6416C78.936 86.7638 79.1804 87.0082 79.3026 87.1304C79.3026 87.2526 79.4248 87.3747 79.4248 87.3747C79.1804 87.9857 79.4248 88.5967 79.4248 89.0854C79.4248 89.452 79.3026 89.6964 79.3026 90.063C79.3026 90.4295 79.4248 90.6739 79.547 91.0405C79.3026 90.7961 79.3026 90.7961 79.1804 90.6739C79.547 91.0405 79.3026 91.7737 79.9136 92.1402C79.9136 92.1402 79.9136 92.3846 79.9136 92.5068C79.9136 93.1178 80.0358 93.7287 80.0358 94.3397C80.0358 94.7063 80.0358 94.7063 79.6692 94.7063C79.4248 94.7063 79.1804 95.0728 78.936 95.3172C78.936 95.4394 78.936 95.4394 79.0582 95.5616C79.3026 95.5616 79.6692 95.4394 80.0358 95.4394C80.0358 95.5616 80.2801 95.9282 80.158 95.9282C79.547 96.6613 80.5245 97.6389 79.6692 98.372C79.9136 98.6164 80.0358 98.7386 80.2801 98.983C79.7914 99.1052 78.4473 98.0054 78.5695 97.5167C78.6916 97.0279 78.8138 96.5391 78.6916 96.1726C78.4473 95.5616 78.8138 95.0728 78.8138 94.4619C78.8138 94.0953 78.6917 93.8509 78.3251 94.0953C78.3251 93.7287 78.2029 93.3621 78.2029 92.8734C78.3251 92.8734 78.4473 92.9956 78.5695 92.9956C79.0582 92.1402 78.936 92.018 78.2029 91.6515C78.0807 91.5293 77.9585 91.2849 78.0807 91.1627C78.2029 91.2849 78.3251 91.2849 78.3251 91.4071L78.4473 91.2849C78.3251 91.1627 78.0807 90.9183 78.0807 90.7961C77.9585 90.5517 77.9585 90.3073 77.9585 90.063L78.0807 89.9408C77.8363 89.6964 77.8363 89.3298 77.8363 88.9632C77.9585 88.7189 77.8363 88.3523 77.7141 87.9857C77.8363 87.9857 77.9585 88.1079 78.0807 88.2301C78.2029 87.8635 78.3251 87.6191 78.4473 87.2525C78.2029 87.1304 78.0807 87.0082 77.9585 86.886C77.8363 87.0082 77.8363 87.1304 77.7141 87.3747C77.4697 86.1528 78.0807 84.9309 77.7141 83.8312C77.4697 83.4646 77.7141 83.3424 77.8363 83.3424ZM78.5695 96.9057C78.6916 97.1501 78.8138 97.6389 78.936 97.6389C79.3026 97.7611 79.547 97.5167 79.6692 97.1501C79.3026 97.1501 78.936 97.0279 78.5695 96.9057ZM78.0807 88.2301C78.3251 88.3523 78.4473 88.4745 78.8138 88.5967C78.8138 88.1079 78.6916 87.7413 78.6916 87.3747C78.5695 87.3747 78.5695 87.3747 78.5695 87.3747C78.4473 87.6191 78.3251 87.8635 78.0807 88.2301Z" fill="#3F89FA"/>
<path d="M93.3547 93.24C93.2325 93.3622 93.1103 93.4843 92.866 93.6065C92.7438 92.2624 92.6216 91.1627 92.6216 90.063C92.4994 90.063 92.4994 90.063 92.4994 90.063C92.6216 89.9408 92.866 89.8186 92.9882 89.6964V89.5742C92.866 89.6964 92.7438 89.6964 92.3772 89.8186C92.6216 89.2076 92.7438 88.7189 92.866 88.2301C92.7438 88.2301 92.4994 88.2301 92.4994 88.1079C92.4994 87.9857 92.4994 87.8635 92.4994 87.7413C92.4994 87.6191 92.6216 87.3747 92.6216 87.3747C92.1328 86.886 92.6216 86.1528 92.3772 85.5419C92.255 85.4197 92.255 85.2975 92.255 85.0531C92.6216 84.8087 92.866 84.5643 92.3772 84.3199C92.3772 83.8312 92.4994 83.3424 92.4994 82.8536C92.4994 81.8761 92.7438 80.8986 93.1103 79.921C93.2325 79.6767 93.4769 79.5545 93.7213 79.3101C93.4769 79.1879 93.3547 79.1879 93.2325 79.0657C93.3547 78.6991 93.4769 78.2103 93.4769 77.7216C93.5991 77.8438 93.5991 77.8438 93.7213 77.966C93.8435 77.5994 93.9657 77.2328 94.0879 76.8662C94.3323 76.0109 94.4545 75.2777 94.6988 74.5446C94.9432 73.9336 95.1876 73.3227 95.5542 72.7117C95.6764 72.5895 95.7986 72.1007 96.2873 72.3451C96.4095 72.3451 96.6539 72.1007 96.6539 71.9786C96.7761 71.612 96.8983 71.1232 97.0205 70.7566C97.2649 70.8788 97.5093 71.001 97.7536 71.001C97.7536 71.7342 97.7536 71.7342 97.1427 71.612C96.6539 72.2229 97.1427 73.2005 96.4095 73.4449C96.1651 73.9336 96.043 74.4224 95.9208 74.789C95.6764 75.3999 95.5542 76.1331 95.3098 76.744C95.0654 77.2328 94.821 77.7216 94.5766 78.2103C94.4545 78.4547 94.3323 78.8213 94.2101 79.0657C93.5991 80.0432 94.0879 81.2651 93.8435 82.3649C93.5991 83.098 93.7213 83.9534 93.5991 84.6865C93.4769 84.9309 93.1103 85.2975 93.4769 85.5419C93.8435 85.7862 93.7213 85.9084 93.7213 86.1528C93.8435 86.7638 93.8435 86.7638 93.4769 87.3747C93.3547 87.6191 93.3547 87.9857 93.4769 88.1079C93.9657 88.5967 93.5991 89.2076 93.5991 89.6964C93.5991 90.063 93.5991 90.1852 93.8435 90.063C93.9657 90.9183 94.0879 91.6515 94.2101 92.5068C93.8435 92.8734 93.7213 93.1178 93.3547 93.24Z" fill="#3F89FA"/>
<path d="M108.14 75.6443C108.262 75.6443 108.384 75.6443 108.629 75.6443C108.751 75.8887 108.629 75.8887 108.262 76.744C108.018 77.1106 108.14 77.7216 107.529 77.7216C107.285 78.5769 107.04 79.4323 106.674 80.4098C106.429 81.1429 105.941 81.8761 105.696 82.7314C105.452 83.709 105.452 84.8087 105.33 85.9084C105.33 86.0306 105.33 86.1528 105.33 86.3972C105.207 86.275 105.085 86.1528 105.085 86.0306H104.963C104.963 86.275 105.085 86.5194 105.085 86.886C104.23 86.5194 104.108 85.9084 104.23 85.0531C104.352 84.6865 104.23 84.1977 104.352 83.709C104.474 82.7314 104.719 81.6317 104.963 80.6542C105.085 80.0432 105.452 79.4323 105.818 78.9435C106.551 77.966 107.285 77.1106 108.018 76.1331C108.14 75.8887 108.018 75.7665 108.14 75.6443Z" fill="#3F89FA"/>
<path d="M89.9333 79.6766C89.9333 79.921 89.9333 80.0432 89.8112 80.532C90.0555 80.8986 89.8112 83.4646 89.3224 83.9534C89.4446 83.9534 89.5668 83.9534 89.8112 83.9534C89.4446 85.1753 90.0555 86.5194 89.5668 87.8635C89.5668 87.9857 89.689 88.1079 89.8112 88.3523C89.5668 88.4745 89.4446 88.4745 89.2002 88.5967C89.078 87.4969 88.8336 86.3972 88.7114 85.2975C88.7114 84.5643 88.8336 83.8312 88.8336 83.2202C88.9558 82.4871 88.9558 81.7539 89.078 81.0208C89.078 80.6542 89.2002 80.2876 89.3224 79.921C89.5668 79.7988 89.8112 79.7988 89.9333 79.6766Z" fill="#3F89FA"/>
<path d="M80.7689 71.7342C80.7689 71.612 80.6467 71.4898 80.6467 71.4898C80.7689 71.3676 81.0133 71.2454 81.0133 71.2454C80.7689 70.6344 80.6467 70.1457 80.5245 69.7791C80.7689 69.5347 81.0133 69.4125 81.0133 69.2903C81.0133 68.1906 81.0133 68.1906 81.9908 67.824C81.8687 67.824 81.6243 67.824 81.3799 67.9462C81.6243 67.7018 81.7465 67.5796 81.8687 67.4574C81.7465 67.3353 81.6243 67.3353 81.6243 67.3353C81.8686 66.9687 81.8687 66.6021 82.113 66.3577C82.3574 66.1133 82.724 65.7468 83.2128 66.1133C82.9684 66.2355 82.724 66.2355 82.6018 66.2355C82.6018 66.4799 82.6018 66.8465 82.6018 67.2131C82.3574 66.9687 82.2352 66.9687 82.2352 66.8465C82.113 66.9687 81.9908 67.0909 81.8687 67.3353L82.2352 67.2131C82.2352 67.9462 82.2352 68.5572 82.2352 69.2903C82.113 69.2903 82.113 69.2903 82.113 69.1681C81.7465 69.6569 81.5021 70.0235 81.1355 70.5122C81.0133 70.6344 81.2577 70.8788 81.2577 70.8788C81.2577 71.2454 80.8911 71.4898 80.7689 71.7342Z" fill="#3F89FA"/>
<path d="M90.0555 91.6515C89.9333 91.7737 89.8112 91.7737 89.689 91.8958C89.9333 92.3846 90.1777 92.7512 90.2999 93.24C90.4221 93.4843 90.4221 93.7287 89.9333 93.8509C89.8112 93.8509 89.8112 94.2175 89.689 94.7063C89.9333 94.4619 90.0555 94.2175 90.1777 94.0953C90.2999 94.2175 90.2999 94.2175 90.4221 94.2175C90.1777 94.4619 90.0555 94.5841 89.8112 94.8285C89.9334 94.9506 90.0555 94.9507 90.0555 95.0728C89.9333 95.4394 89.9334 95.806 89.8112 96.1726C89.9334 96.1726 90.0555 96.417 90.2999 96.5391L89.5668 96.6613C89.4446 96.2948 89.3224 95.9282 89.3224 95.4394C89.3224 95.0728 89.3224 94.5841 89.3224 94.2175C89.3224 93.6065 89.4446 92.8734 89.4446 92.2624C89.4446 91.6515 89.2002 91.0405 89.078 90.4295C88.9558 90.4295 88.9558 90.4295 88.9558 90.4295C89.078 90.1852 89.3224 90.063 89.4446 89.9408C89.2002 89.0854 89.2002 88.9632 89.9333 88.5967C89.689 88.841 89.5668 89.0854 89.4446 89.3298C89.5668 89.5742 89.8112 89.8186 89.9333 90.1852C90.0555 90.3074 90.0555 90.5517 89.9333 90.5517C89.3224 91.1627 89.9333 91.4071 90.0555 91.6515Z" fill="#3F89FA"/>
<path d="M91.5218 75.0334C91.644 75.3999 90.7887 77.7216 90.0555 78.0882C90.4221 76.744 90.9109 75.3999 91.2775 73.9336C91.3997 73.9336 91.644 73.8114 91.8884 73.8114C91.7662 73.567 91.644 73.4449 91.3997 73.2005C91.8884 72.4673 92.3772 71.612 92.7438 70.8788C92.9881 72.4673 92.0106 73.567 91.5218 75.0334Z" fill="#3F89FA"/>
<path d="M86.8784 59.515C86.8784 59.6372 86.7562 59.8815 86.7562 60.0037C86.7562 60.1259 86.634 60.2481 86.7562 60.2481C87.3672 60.6147 87.0006 60.8591 86.634 61.1035C86.5118 61.2257 86.3896 61.3479 86.3896 61.47C86.5118 61.8366 86.3896 61.9588 86.0231 61.9588C85.7787 61.9588 85.5343 61.9588 85.2899 62.2032C85.5343 62.3254 85.7787 62.4476 85.9009 62.4476C85.6565 62.8142 85.5343 63.1807 85.2899 63.5473C85.2899 63.6695 85.1677 63.6695 85.1677 63.7917C84.8011 64.0361 84.4346 64.5248 83.8236 64.0361C84.1902 63.5473 84.5568 62.9363 84.8011 62.4476C85.0455 61.9588 85.2899 61.5922 85.7787 61.3478C86.2674 61.1035 86.3896 60.2481 86.7562 59.7594C86.8784 59.515 86.8784 59.515 86.8784 59.515Z" fill="#3F89FA"/>
<path d="M79.1804 74.6668C79.0582 74.6668 78.936 74.6668 78.8138 74.6668C79.1804 74.4224 78.936 73.8114 79.4248 73.8114C79.4248 73.6892 79.3026 73.5671 79.3026 73.4449C79.547 72.5895 79.7914 71.8564 79.9136 71.001C80.0358 71.001 80.158 71.001 80.158 71.001C80.158 71.2454 80.158 71.4898 80.158 71.7342C80.2801 71.7342 80.5245 71.7342 80.6467 71.7342C80.5245 71.9786 80.6467 72.2229 80.8911 72.3451C80.6467 72.7117 80.4023 73.0783 80.158 73.4449L80.2801 73.5671C80.158 74.0558 80.0358 74.4224 79.9136 74.789C79.7914 74.6668 79.6692 74.6668 79.4248 74.5446C79.4248 74.6668 79.3026 74.6668 79.1804 74.6668Z" fill="#3F89FA"/>
<path d="M99.5864 66.9687C99.7086 67.2131 99.8308 67.5796 99.8308 67.824C99.5864 68.6794 98.6089 69.2903 97.6313 69.0459C98.7311 68.8016 98.9755 68.0684 99.0977 67.0909C99.2198 67.3353 99.342 67.5796 99.4642 67.824C99.4642 67.824 99.5864 67.824 99.5864 67.7018L99.342 67.0909C99.4642 67.0909 99.4642 66.9687 99.5864 66.9687Z" fill="#3F89FA"/>
<path d="M88.9558 58.5374C88.7114 59.1484 88.2227 58.5374 87.9783 58.7818C88.1005 58.904 88.3448 59.1484 88.5892 59.3928L87.8561 59.515C87.8561 59.515 87.8561 59.7594 87.7339 59.8816C87.4895 59.8816 87.2451 59.7594 87.0007 59.7594C87.3673 58.904 87.9783 58.4152 88.9558 58.5374Z" fill="#3F89FA"/>
<path d="M79.1804 74.6668C79.3026 74.6668 79.4248 74.6668 79.547 74.6668C79.6692 75.5221 79.1804 76.6218 78.5695 76.8662C78.2029 76.1331 78.8138 76.0109 79.1804 75.7665L78.6916 75.8887C78.6916 75.6443 78.5695 75.2777 79.0582 75.2777C79.7914 75.1555 79.1804 74.789 79.1804 74.6668Z" fill="#3F89FA"/>
<path d="M96.2872 65.7468C96.4094 66.2355 96.8982 66.7243 96.0428 67.0909C95.7985 67.2131 95.5541 67.5796 95.1875 67.9462C95.3097 67.4574 95.3097 67.0909 95.4319 66.7243H95.6763C95.7985 66.3577 95.9207 65.9911 96.0428 65.7468H96.2872Z" fill="#3F89FA"/>
<path d="M90.4221 99.7161C90.1777 99.5939 89.9334 99.5939 89.8112 99.4717C89.8112 98.983 89.8112 98.4942 89.689 98.1276C89.9333 98.0054 90.0555 98.0054 90.2999 97.8832C90.2999 98.372 90.4221 98.983 90.4221 99.7161Z" fill="#3F89FA"/>
<path d="M84.5569 93.1178C84.5569 93.1178 84.6791 92.9956 84.9235 92.8734C84.9235 93.1178 84.9235 93.4843 84.9235 93.7287C84.9235 94.0953 84.9235 94.4619 84.8013 94.8284C84.8013 94.9506 84.6791 95.0728 84.5569 95.3172C84.4347 95.195 84.4347 94.9506 84.4347 94.8284C84.4347 94.3397 84.5569 93.7287 84.5569 93.1178Z" fill="#3F89FA"/>
<path d="M89.4446 102.282C89.5668 101.916 89.689 101.671 89.689 101.427H89.8112C89.8112 101.305 89.689 101.06 89.5668 100.816C90.0555 101.182 90.5443 101.427 90.1777 102.038L89.4446 102.282Z" fill="#3F89FA"/>
<path d="M84.9236 89.9408C84.6792 89.9408 84.557 89.9408 84.557 89.9408C84.4348 90.3073 84.4348 90.6739 84.3126 91.0405C84.1904 91.0405 84.1904 91.0405 84.0682 91.0405C84.0682 90.5517 84.1904 90.063 84.1904 89.3298C84.557 89.5742 84.6792 89.6964 84.9236 89.9408Z" fill="#3F89FA"/>
<path d="M93.3546 93.24C93.3546 93.4843 93.4768 93.7287 93.4768 93.9731C93.4768 93.9731 93.599 93.9731 93.7212 93.8509C93.599 94.2175 93.4768 94.5841 93.3546 94.8284H93.1102C93.1102 94.5841 92.988 94.4619 92.988 94.2175C93.1102 93.9731 93.2324 93.6065 93.3546 93.24Z" fill="#3F89FA"/>
<path d="M79.7913 104.97C79.6691 105.215 79.5469 105.459 79.4247 105.704C79.5469 105.948 79.6691 106.192 79.7913 106.314C79.7913 106.314 79.6691 106.314 79.6691 106.437C79.4247 106.192 79.1803 106.07 78.9359 105.826C79.1803 105.459 79.4247 105.215 79.7913 104.97Z" fill="#3F89FA"/>
<path d="M96.5316 65.5024C96.776 65.258 96.8982 65.1358 97.0204 65.0136C97.0204 65.1358 97.0204 65.1358 97.1426 65.258C97.2648 65.1358 97.5091 65.1358 97.6313 65.0136C97.1426 65.6246 96.776 65.7468 96.5316 65.5024Z" fill="#3F89FA"/>
<path d="M89.9333 79.6766C89.689 79.6766 89.5668 79.7988 89.4446 79.7988C89.5668 79.5545 89.5668 79.1879 89.689 78.8213C89.8112 78.8213 89.8112 78.8213 89.9333 78.8213C90.0555 79.0657 90.1777 79.1879 90.4221 79.4323C90.1777 79.5545 90.0555 79.6766 89.9333 79.6766Z" fill="#3F89FA"/>
<path d="M98.3646 69.5347C98.3646 69.6569 98.3646 69.9013 98.2424 70.1457C98.1202 70.2679 97.9981 70.3901 97.7537 70.6344C97.7537 70.6344 97.6315 70.5123 97.5093 70.3901C97.7537 70.1457 97.998 69.7791 98.2424 69.4125C98.2424 69.5347 98.2424 69.5347 98.3646 69.5347Z" fill="#3F89FA"/>
</g>
<path fill-rule="evenodd" clip-rule="evenodd" d="M39.1014 100.571L31.4033 82.3649L32.0142 102.527L16.4958 98.6164L29.326 109.125L16.9846 119.145L33.114 116.823L34.2137 135.274L40.9342 117.312L50.4652 130.508L49.3655 109.491L75.148 108.758L48.6323 102.404L50.0986 85.7862L39.1014 100.571Z" fill="#EA7303"/>
<path d="M9.6532 92.1402L23.4609 94.8284L25.0494 68.5572" stroke="#3F89FA" stroke-width="0.5" stroke-linecap="round" stroke-linejoin="round"/>
<path d="M0.733155 116.823L16.1293 106.681L0 90.3073L9.65317 92.1402" stroke="#EA7303" stroke-width="0.5" stroke-linecap="round" stroke-linejoin="round"/>
<path fill-rule="evenodd" clip-rule="evenodd" d="M328.208 108.392C324.908 106.437 313.911 103.748 313.911 103.748L325.764 113.402L315.866 120.367L328.208 118.289L329.185 133.319L334.806 120.733L345.559 128.553L339.449 114.379L351.302 112.424L338.105 108.881L342.748 99.9605L333.951 105.459L325.031 94.7062C325.275 94.584 326.863 105.337 328.208 108.392Z" fill="#D8E9F9"/>
<path d="M349.713 108.881L343.482 107.17L348.369 95.9282" stroke="#3F89FA" stroke-width="0.5" stroke-linecap="round" stroke-linejoin="round"/>
<path d="M350.935 115.968L359 111.447L349.713 108.881" stroke="#D8E9F9" stroke-width="0.5" stroke-linecap="round" stroke-linejoin="round"/>
</g>
<defs>
<clipPath id="clip0_295_19433">
<rect width="359.1" height="195" fill="white"/>
</clipPath>
</defs>
</svg>
