<svg xmlns="http://www.w3.org/2000/svg" xmlns:xlink="http://www.w3.org/1999/xlink" width="64" height="64" id="water"><defs><linearGradient id="b" x1="949.87" x2="974.39" y1="518.014" y2="544.657" gradientTransform="translate(116.758 -92.976) scale(1.02524)" gradientUnits="userSpaceOnUse" xlink:href="#a"></linearGradient><linearGradient id="a"><stop offset="0" stop-color="#24f7bc"></stop><stop offset="1" stop-color="#24c4fc"></stop></linearGradient></defs><g transform="translate(-1086.326 -435.704)"><rect width="32" height="32" x="1086.326" y="435.704" fill="url(#b)" rx="6.763" ry="6.763"></rect><path fill="#fff" style="text-indent:0;text-align:start;line-height:normal;text-transform:none;block-progression:tb;marker:none;-inkscape-font-specification:Sans" d="M1102.143 441.711a.6.6 0 0 0-.44.404c-.533 1.704-1.026 2.474-1.798 3.338-.771.864-1.847 1.805-3.375 3.668a7.661 7.661 0 0 0-1.834 4.952c0 4.208 3.423 7.63 7.63 7.63 4.208 0 7.63-3.422 7.63-7.63a7.619 7.619 0 0 0-1.944-5.062c-.01-.012.01-.03 0-.036h.037c-1.473-1.79-2.523-2.71-3.301-3.559-.778-.849-1.34-1.595-1.944-3.301a.607.607 0 0 0-.66-.404zm-4.659 11.629a.587.587 0 0 1 .734.587c-.014.468.076.948.22 1.394a4.096 4.096 0 0 0 5.172 2.64.592.592 0 1 1 .33 1.138c-2.77.893-5.746-.642-6.64-3.411a5.4 5.4 0 0 1-.256-1.798.587.587 0 0 1 .44-.55z" color="#000" font-family="Sans" font-weight="400" overflow="visible"></path></g></svg>