<?xml version="1.0" encoding="utf-8"?>
<!-- Generator: Adobe Illustrator 25.3.1, SVG Export Plug-In . SVG Version: 6.00 Build 0)  -->
<svg version="1.1" id="Layer_1" xmlns="http://www.w3.org/2000/svg" xmlns:xlink="http://www.w3.org/1999/xlink" x="0px" y="0px"
	 viewBox="0 0 326.2 214.6" style="enable-background:new 0 0 326.2 214.6;" xml:space="preserve">
<style type="text/css">
	.st0{fill-rule:evenodd;clip-rule:evenodd;fill:#D4EFFC;}
	.st1{fill-rule:evenodd;clip-rule:evenodd;fill:#10357F;}
	.st2{fill-rule:evenodd;clip-rule:evenodd;fill:#FFFFFF;}
	.st3{fill-rule:evenodd;clip-rule:evenodd;fill:#007DC5;}
	.st4{fill:none;stroke:#39347F;stroke-width:1.7025;stroke-miterlimit:22.9256;}
	.st5{fill-rule:evenodd;clip-rule:evenodd;fill:#39347F;}
	.st6{fill:none;stroke:#39347F;stroke-width:0.216;stroke-miterlimit:22.9256;}
</style>
<symbol  id="New_Symbol_1" viewBox="-163.1 -107.3 326.2 214.6">
	<path class="st0" d="M163.1-57.8l-147.7,0c-64.3-2.2-106.1-10.9-178.5-8.1V5.3h139.2c51.2,0.9,120.9,15,187,11.7v-76.2V-57.8z"/>
	<path class="st1" d="M163.1,19.1C77.5,22.8,25,5.6-46.8,7.5h-116.3v99.8h326.2V19.1L163.1,19.1z"/>
	<path class="st2" d="M-103.4,60.1l28.5,38h13.2l-29.3-37.5l28.6-38.1h-13.7L-103.4,60.1L-103.4,60.1z M-103.8,22.6h-10.9v75.6h10.9
		V22.6L-103.8,22.6z M-13,22.6h-39.2v75.6H-13V88.1h-28.3V65.6H-13v-9.9h-28.3V33.1H-13V22.6L-13,22.6z M15.9,22.6H5v75.6h11.3
		L53.4,41l-0.5,57.2h10.8V22.6H53.1L15.2,81.5L15.9,22.6L15.9,22.6z M100.7,22.6H89.7V88H75.6v10.2h39.2V88h-14.1V22.6L100.7,22.6z"
		/>
	<path class="st1" d="M-163.1-68.2C-78.7-71.5-25-58.2,46.7-60h116.5v-47.3h-326.2v37.8V-68.2z"/>
	<path class="st2" d="M124-95l3,1.4c0.3-1,0.8-1.8,1.5-2.3c0.8-0.5,1.7-0.8,2.9-0.8c1.1,0,2,0.3,2.6,0.9c0.6,0.6,1,1.4,1,2.5
		c0,1.3-1.1,2.5-3.4,3.6c-0.3,0.2-0.5,0.3-0.7,0.3c-2.5,1.2-4.2,2.3-5,3.3c-0.8,1-1.3,2.2-1.3,3.7c0,1.9,0.6,3.4,1.9,4.5
		c1.3,1.2,2.9,1.7,5,1.7c1.7,0,3.1-0.3,4.2-1c1.1-0.7,1.9-1.6,2.4-2.8l-2.9-1.5c-0.4,0.7-0.9,1.2-1.5,1.6c-0.5,0.3-1.2,0.5-1.9,0.5
		c-1,0-1.8-0.3-2.4-0.8c-0.6-0.5-0.9-1.2-0.9-2.1c0-1.4,1.3-2.7,3.9-3.8c0.2-0.1,0.4-0.2,0.5-0.2c2.3-1,3.8-2.1,4.7-3.1
		c0.8-1,1.3-2.2,1.3-3.7c0-2.2-0.7-3.9-2-5.2c-1.4-1.3-3.2-1.9-5.5-1.9c-1.9,0-3.5,0.4-4.8,1.3C125.2-97.9,124.4-96.7,124-95
		 M100-79.9v-19.7h-3.7v19.7h-6.1v3.2h15.8v-3.2H100z M71.6-82.3c-1,0.9-2.2,1.6-3.3,2c-1.2,0.4-2.4,0.7-3.7,0.7
		c-2.5,0-4.5-0.8-6.1-2.4c-1.6-1.6-2.3-3.7-2.3-6.2c0-2.5,0.8-4.5,2.3-6.1c1.5-1.6,3.5-2.4,5.8-2.4c1.3,0,2.6,0.2,3.9,0.7
		c1.2,0.5,2.4,1.2,3.5,2.2V-98c-1-0.7-2.1-1.3-3.3-1.6c-1.2-0.4-2.4-0.5-3.8-0.5c-1.8,0-3.4,0.3-4.8,0.9c-1.5,0.6-2.8,1.4-3.9,2.5
		c-1.1,1.1-2,2.4-2.6,3.9c-0.6,1.5-0.9,3.1-0.9,4.7c0,1.7,0.3,3.2,0.9,4.7c0.6,1.5,1.5,2.8,2.6,3.9c1.1,1.1,2.4,2,3.9,2.6
		c1.5,0.6,3.1,0.9,4.8,0.9c1.3,0,2.6-0.2,3.8-0.6c1.2-0.4,2.4-1,3.5-1.8L71.6-82.3z M13-76.7h3.7v-13.9c0-2.1,0.5-3.6,1.4-4.6
		c1-1,2.4-1.6,4.3-1.6s3.3,0.5,4.3,1.6c1,1,1.4,2.6,1.4,4.6v13.9h3.7v-14.2c0-3.1-0.8-5.4-2.3-6.9c-1.6-1.5-3.9-2.3-7.1-2.3
		c-3.1,0-5.5,0.8-7,2.3C13.8-96.4,13-94,13-90.9V-76.7z M-27-99.6v22.9h5c3.3,0,5.6-0.2,6.9-0.5c1.3-0.3,2.5-0.9,3.5-1.6
		c1.3-1,2.3-2.3,3-3.9c0.7-1.6,1-3.4,1-5.4c0-2-0.3-3.8-1-5.4c-0.7-1.6-1.7-2.8-3-3.9c-1-0.8-2.1-1.3-3.4-1.7
		c-1.3-0.3-3.3-0.5-6-0.5H-27z M-23.3-96.2h3.1c1.7,0,3,0.1,3.9,0.3c0.9,0.2,1.6,0.6,2.2,1.2c0.9,0.7,1.5,1.7,1.9,2.8
		c0.4,1.1,0.7,2.4,0.7,3.8c0,1.5-0.2,2.7-0.7,3.8c-0.4,1.1-1.1,2-1.9,2.8c-0.6,0.5-1.4,0.9-2.3,1.2c-0.9,0.2-2.3,0.3-4.2,0.3h-2.7
		V-96.2z M-47.6-88.2c0-1.6-0.3-3.2-0.9-4.6c-0.6-1.4-1.5-2.7-2.7-3.9c-1.2-1.1-2.5-2-4-2.6c-1.5-0.6-3-0.9-4.6-0.9
		c-1.7,0-3.2,0.3-4.7,0.9c-1.5,0.6-2.8,1.5-4,2.6c-1.2,1.1-2,2.4-2.6,3.9c-0.6,1.4-0.9,3-0.9,4.6c0,1.6,0.3,3.2,0.9,4.6
		c0.6,1.5,1.5,2.8,2.6,3.9c1.2,1.1,2.5,2,4,2.6c1.5,0.6,3,0.9,4.7,0.9c1.6,0,3.2-0.3,4.7-0.9c1.5-0.6,2.8-1.4,4-2.6
		c1.2-1.2,2.1-2.5,2.7-3.9C-47.9-85.1-47.6-86.6-47.6-88.2z M-51.5-88.2c0,1.1-0.2,2.2-0.6,3.3c-0.4,1-1,2-1.8,2.8
		c-0.8,0.8-1.7,1.4-2.7,1.8c-1,0.4-2.1,0.6-3.2,0.6c-1.1,0-2.2-0.2-3.2-0.6c-1-0.4-1.9-1-2.7-1.9c-0.8-0.8-1.4-1.7-1.8-2.8
		c-0.4-1-0.6-2.1-0.6-3.3c0-1.2,0.2-2.2,0.6-3.3c0.4-1,1-1.9,1.8-2.8c0.8-0.8,1.7-1.4,2.7-1.9c1-0.4,2.1-0.6,3.2-0.6
		c1.1,0,2.2,0.2,3.2,0.6c1,0.4,1.9,1,2.7,1.9c0.8,0.8,1.4,1.7,1.8,2.8C-51.7-90.4-51.5-89.3-51.5-88.2z M-101.9-89.4v-10.2h-3.5
		v22.9h5.2c1.5,0,2.7-0.1,3.5-0.3c0.8-0.2,1.5-0.5,2.1-1c0.7-0.6,1.3-1.3,1.6-2.1c0.4-0.9,0.6-1.8,0.6-2.9c0-1.8-0.4-3.3-1.3-4.3
		c-0.9-1-2.2-1.7-3.9-1.9l7.9-10.4h-4.2l-7.6,10.2H-101.9z M-101.7-86.5h0.7c2,0,3.3,0.2,3.9,0.7c0.6,0.5,1,1.3,1,2.4
		c0,1.3-0.4,2.1-1,2.7c-0.7,0.5-2,0.8-3.8,0.8h-0.7V-86.5z M-135.3-89.3v-10.3h-3.5v22.9h5.6c1.7,0,2.9-0.1,3.7-0.3
		c0.8-0.2,1.5-0.5,2-0.9c0.7-0.5,1.3-1.2,1.7-2.1c0.4-0.9,0.6-1.9,0.6-3c0-1.1-0.2-2.1-0.6-3c-0.4-0.9-1-1.6-1.7-2.2
		c-0.6-0.4-1.3-0.7-2-0.9c-0.8-0.2-2-0.3-3.7-0.3H-135.3z M-135.1-86.3h0.9c2.1,0,3.4,0.2,4.1,0.7c0.7,0.4,1,1.2,1,2.4
		c0,1.2-0.4,2.1-1.1,2.6c-0.7,0.5-2.1,0.8-4.1,0.8h-0.9V-86.3z"/>
	<g>
		<path class="st3" d="M-125.7-28.2l-3.4-15.9h-7.4l7.5,35.4h7.4l-2.9-13.4h13.8l2.9,13.4h7.4l-7.5-35.4h-7.4l3.4,15.9H-125.7z"/>
		<path class="st3" d="M-77-36.4c-3.2-6.3-8.8-8.4-13.3-8.4c-7.4,0-12.3,3.6-10,14.4c0.7,3.2,3.9,13.3,15.4,13.3
			c5.2,0,11.8-2.5,9.3-14.5l-0.3-1.2h-18c-0.2-2-0.8-6.4,4.8-6.4c1.9,0,4.1,1,5.1,2.9H-77z M-82.1-28.4c0.5,4.2-1.9,5.5-4.2,5.5
			c-3.3,0-5.4-2.1-6.6-5.5H-82.1z"/>
		<path class="st3" d="M-51.4-39c-0.7-3.1-0.1-3.8,0.7-4.1l-0.2-1h-7.5c-0.1,1.2-0.1,1.6,0,3.1c-1.9-1.6-4.6-3.8-9.3-3.8
			c-3.9,0-7.5,2.2-6.4,7.6c1.1,5.1,4.9,7.8,9.4,8.4l6.4,0.9c1.1,0.1,2.5,0.6,2.9,2.1c0.6,2.9-2.1,3.1-3.9,3.1c-3.5,0-4.5-2.1-5-3.7
			h-6.7c2.5,8,8.3,9.2,13.7,9.2c3.7,0,10.2-1.1,8.8-7.6L-51.4-39z M-56.5-31.3c-0.8-0.5-2-1-5-1.4c-2.7-0.4-4.9-1.1-5.5-3.9
			c-0.5-2.4,1.2-3.2,2.5-3.2c3.1,0,6.6,2,7.3,5.2L-56.5-31.3z"/>
		<path class="st3" d="M-39.2-44.1h-6.9l7.5,35.4h6.9L-39.2-44.1z"/>
		<path class="st3" d="M-19.3-17.9h4.3l-1-4.9h-4.3l-3-14.3c-0.3-1.5-0.4-2.1,2.4-2.1c0.4,0,0.9,0,1.5,0.1l-1.1-5.2
			c-1.1,0-2.2-0.1-3.3-0.1h-0.9c-6,0-6.6,2.3-5.9,5.7l3.4,15.9h-3.6l1,4.9h3.6l1.5,7.1h6.9L-19.3-17.9z"/>
		<path class="st3" d="M7.6-44.1H0.7l3.4,15.9c0.4,1.9,1,5.2-3.4,5.2c-3.1,0-5.9-2.1-6.7-6.1l-3.2-15.1h-6.9l7.5,35.4h6.9l-2.7-12.6
			h0.1c1.3,2.2,4.7,4.1,8.5,4.1c5.1,0,8.5-3,7.3-8.8L7.6-44.1z"/>
		<path class="st3" d="M55.9-20.3c-0.1,2.1-0.4,6.1-6.5,6.1c-3.6,0-9.3-2.4-11.4-12.4c-1.4-6.4-0.1-12.1,6.2-12.1
			c4.1,0,7.5,2.3,9.3,6.7h7.4c-3.1-7.7-9.3-13.1-18.2-13.1c-9.4,0-14.8,6.4-12.2,18.6C33.1-14.1,41.6-7.8,50.7-7.8
			c10.6,0,13.4-7.3,12.6-12.5H55.9z"/>
		<path class="st3" d="M85.7-39c-0.7-3.1-0.1-3.8,0.7-4.1l-0.2-1h-7.5c-0.1,1.2-0.1,1.6,0,3.1c-1.9-1.6-4.6-3.8-9.3-3.8
			c-3.9,0-7.5,2.2-6.4,7.6c1.1,5.1,4.9,7.8,9.4,8.4l6.4,0.9c1.1,0.1,2.5,0.6,2.9,2.1c0.6,2.9-2.1,3.1-3.9,3.1c-3.5,0-4.5-2.1-5-3.7
			h-6.7c2.5,8,8.3,9.2,13.7,9.2c3.7,0,10.2-1.1,8.8-7.6L85.7-39z M80.6-31.3c-0.8-0.5-2-1-5-1.4c-2.7-0.4-4.9-1.1-5.5-3.9
			c-0.5-2.4,1.2-3.2,2.5-3.2c3.1,0,6.6,2,7.3,5.2L80.6-31.3z"/>
		<path class="st3" d="M96.3-17.9h6.6l-1-4.5h0.1c2,2.7,4.1,5.2,8.3,5.2c0.4,0,0.9,0,1.3-0.1l-1.5-7c-0.6,0.1-1.3,0.1-2,0.1
			c-5.4,0-7.1-3.4-7.7-6.3l-2.9-13.7h-6.9L96.3-17.9z"/>
		<path class="st3" d="M134.2-36.4c-3.2-6.3-8.8-8.4-13.3-8.4c-7.4,0-12.3,3.6-10,14.4c0.7,3.2,3.9,13.3,15.4,13.3
			c5.2,0,11.8-2.5,9.3-14.5l-0.3-1.2h-18c-0.2-2-0.8-6.4,4.8-6.4c1.9,0,4.1,1,5,2.9H134.2z M129.1-28.4c0.5,4.2-1.9,5.5-4.2,5.5
			c-3.3,0-5.4-2.1-6.6-5.5H129.1z"/>
	</g>
</symbol>
<symbol  id="New_Symbol_13" viewBox="-76.8 -77.3 153.6 154.6">
	<g>
		<path class="st2" d="M-43.6,76.4h87.1c17.8,0,32.4-14.7,32.4-32.6v-87.7c0-17.9-14.6-32.6-32.4-32.6h-87.1
			c-17.8,0-32.4,14.7-32.4,32.6v87.7C-75.9,61.8-61.4,76.4-43.6,76.4z"/>
		<path class="st4" d="M-43.6,76.4h87.1c17.8,0,32.4-14.7,32.4-32.6v-87.7c0-17.9-14.6-32.6-32.4-32.6h-87.1
			c-17.8,0-32.4,14.7-32.4,32.6v87.7C-75.9,61.8-61.4,76.4-43.6,76.4z"/>
		<path class="st5" d="M32.8,74.5c-38-5.6-44.2-54.9-7.7-70.9h-75.1c-30.4,6.5-38,56,0,72.5L32.8,74.5z"/>
		<path class="st6" d="M32.8,74.5c-38-5.6-44.2-54.9-7.7-70.9h-75.1c-30.4,6.5-38,56,0,72.5L32.8,74.5z"/>
		<path class="st5" d="M-34.3-76.8C3.7-71.2,9.9-21.9-26.6-6h75.1c32.7-5.8,38.7-54.3,0.7-70.8L-34.3-76.8z"/>
		<path class="st6" d="M-34.3-76.8C3.7-71.2,9.9-21.9-26.6-6h75.1c32.7-5.8,38.7-54.3,0.7-70.8L-34.3-76.8z"/>
		<path class="st5" d="M61.3,36.7c1.4,1.2,5.5,14-6.7,22.5L48,51.6C54.9,48.8,57.9,43.4,61.3,36.7z"/>
		<path class="st6" d="M61.3,36.7c1.4,1.2,5.5,14-6.7,22.5L48,51.6C54.9,48.8,57.9,43.4,61.3,36.7z"/>
		<path class="st5" d="M-13.3-40.5c1.4,1.2,5.5,14-6.7,22.5l-6.6-7.5C-19.7-28.4-16.7-33.8-13.3-40.5z"/>
		<path class="st6" d="M-13.3-40.5c1.4,1.2,5.5,14-6.7,22.5l-6.6-7.5C-19.7-28.4-16.7-33.8-13.3-40.5z"/>
	</g>
</symbol>
<use xlink:href="#New_Symbol_1"  width="326.2" height="214.6" x="-163.1" y="-107.3" transform="matrix(1 0 0 -1 163.1078 107.3239)" style="overflow:visible;"/>
</svg>
